<svg xmlns="http://www.w3.org/2000/svg" xmlns:xlink="http://www.w3.org/1999/xlink" width="960.637" height="232.817" viewBox="0 0 960.637 232.817">
  <defs>
    <clipPath id="clip-path">
      <rect id="Rectángulo_298714" data-name="Rectángulo 298714" width="132" height="144" transform="translate(284.04 2251.008)" fill="#fff" stroke="#707070" stroke-width="1"/>
    </clipPath>
    <clipPath id="clip-path-2">
      <rect id="Rectángulo_298717" data-name="Rectángulo 298717" width="120" height="128" transform="translate(281.779 2251.509)" fill="#fff" stroke="#707070" stroke-width="1"/>
    </clipPath>
  </defs>
  <g id="Grupo_894045" data-name="Grupo 894045" transform="translate(-319.682 -2268)">
    <g id="Grupo_883852" data-name="Grupo 883852" transform="translate(340.432 2426.672)">
      <path id="Trazado_630712" data-name="Trazado 630712" d="M13.212,15H11.7V9.742H5.97V15H4.47V3.625h1.5V8.516H11.7V3.625h1.508Zm2.055-4.3a4.993,4.993,0,0,1,.488-2.234A3.643,3.643,0,0,1,17.115,6.93,3.7,3.7,0,0,1,19.1,6.391a3.565,3.565,0,0,1,2.793,1.2,4.6,4.6,0,0,1,1.066,3.18v.1a5.036,5.036,0,0,1-.473,2.215,3.589,3.589,0,0,1-1.352,1.527,3.743,3.743,0,0,1-2.02.547,3.556,3.556,0,0,1-2.785-1.2A4.575,4.575,0,0,1,15.267,10.8Zm1.453.172a3.616,3.616,0,0,0,.652,2.258,2.211,2.211,0,0,0,3.5-.012,3.955,3.955,0,0,0,.648-2.418,3.61,3.61,0,0,0-.66-2.254A2.1,2.1,0,0,0,19.1,7.578a2.075,2.075,0,0,0-1.727.852A3.925,3.925,0,0,0,16.72,10.867ZM29.7,12.758a1.064,1.064,0,0,0-.441-.91,4.249,4.249,0,0,0-1.539-.559,7.277,7.277,0,0,1-1.742-.562,2.479,2.479,0,0,1-.953-.781,1.869,1.869,0,0,1-.309-1.078,2.193,2.193,0,0,1,.879-1.758,3.432,3.432,0,0,1,2.246-.719,3.532,3.532,0,0,1,2.332.742,2.357,2.357,0,0,1,.895,1.9H29.611a1.3,1.3,0,0,0-.5-1.023,1.888,1.888,0,0,0-1.27-.43,1.976,1.976,0,0,0-1.234.344,1.082,1.082,0,0,0-.445.9.877.877,0,0,0,.414.789,5.1,5.1,0,0,0,1.5.508,7.8,7.8,0,0,1,1.754.578,2.558,2.558,0,0,1,1,.809,1.988,1.988,0,0,1,.324,1.152,2.163,2.163,0,0,1-.906,1.816,3.8,3.8,0,0,1-2.352.684,4.257,4.257,0,0,1-1.8-.359,2.922,2.922,0,0,1-1.223-1,2.42,2.42,0,0,1-.441-1.395h1.445a1.5,1.5,0,0,0,.582,1.152,2.258,2.258,0,0,0,1.434.426,2.331,2.331,0,0,0,1.316-.332A1.02,1.02,0,0,0,29.7,12.758ZM34.986,4.5V6.547h1.578V7.664H34.986v5.249a1.173,1.173,0,0,0,.211.763.888.888,0,0,0,.719.254,3.5,3.5,0,0,0,.688-.094V15a4.215,4.215,0,0,1-1.109.155,1.8,1.8,0,0,1-1.461-.586,2.517,2.517,0,0,1-.492-1.664V7.664H32V6.547H33.54V4.5ZM39.822,15H38.376V6.547h1.445ZM38.259,4.3a.863.863,0,0,1,.215-.594.807.807,0,0,1,.637-.242.819.819,0,0,1,.641.242.854.854,0,0,1,.219.594.826.826,0,0,1-.219.586.834.834,0,0,1-.641.234.821.821,0,0,1-.637-.234A.834.834,0,0,1,38.259,4.3ZM43.5,6.547l.047,1.063a3.08,3.08,0,0,1,2.531-1.219q2.68,0,2.7,3.023V15H47.337V9.406a1.946,1.946,0,0,0-.418-1.352,1.675,1.675,0,0,0-1.277-.437,2.086,2.086,0,0,0-1.234.375,2.546,2.546,0,0,0-.828.984V15H42.134V6.547ZM50.619,10.7a4.968,4.968,0,0,1,.914-3.145,3.151,3.151,0,0,1,4.836-.074l.07-.937h1.32V14.8a3.439,3.439,0,0,1-.973,2.586,3.589,3.589,0,0,1-2.613.945,4.348,4.348,0,0,1-1.789-.391,3.08,3.08,0,0,1-1.336-1.07L51.8,16a2.826,2.826,0,0,0,2.273,1.148,2.214,2.214,0,0,0,1.645-.594,2.269,2.269,0,0,0,.59-1.672v-.727a2.971,2.971,0,0,1-2.367,1,2.887,2.887,0,0,1-2.4-1.2A5.224,5.224,0,0,1,50.619,10.7Zm1.453.164a3.79,3.79,0,0,0,.586,2.246,1.9,1.9,0,0,0,1.641.816,2.117,2.117,0,0,0,2.008-1.242V8.828a2.142,2.142,0,0,0-1.992-1.211,1.921,1.921,0,0,0-1.648.82A4.128,4.128,0,0,0,52.072,10.867ZM67.29,13.977a2.082,2.082,0,0,0,1.352-.469,1.649,1.649,0,0,0,.641-1.172H70.65a2.621,2.621,0,0,1-.5,1.383,3.293,3.293,0,0,1-1.23,1.047,3.55,3.55,0,0,1-1.629.391A3.482,3.482,0,0,1,64.544,14a4.59,4.59,0,0,1-1.02-3.152v-.242a5.089,5.089,0,0,1,.453-2.2,3.451,3.451,0,0,1,1.3-1.492,3.7,3.7,0,0,1,2-.531,3.39,3.39,0,0,1,2.363.852,3.043,3.043,0,0,1,1,2.211H69.283a1.992,1.992,0,0,0-.621-1.348,1.932,1.932,0,0,0-1.379-.527,2.023,2.023,0,0,0-1.707.793,3.724,3.724,0,0,0-.605,2.293v.273a3.65,3.65,0,0,0,.6,2.25A2.033,2.033,0,0,0,67.29,13.977Zm4.6-3.281a4.993,4.993,0,0,1,.488-2.234A3.643,3.643,0,0,1,73.74,6.93a3.7,3.7,0,0,1,1.988-.539,3.565,3.565,0,0,1,2.793,1.2,4.6,4.6,0,0,1,1.066,3.18v.1a5.036,5.036,0,0,1-.473,2.215,3.589,3.589,0,0,1-1.352,1.527,3.743,3.743,0,0,1-2.02.547,3.556,3.556,0,0,1-2.785-1.2A4.575,4.575,0,0,1,71.892,10.8Zm1.453.172A3.616,3.616,0,0,0,74,13.125a2.211,2.211,0,0,0,3.5-.012,3.955,3.955,0,0,0,.648-2.418,3.61,3.61,0,0,0-.66-2.254,2.1,2.1,0,0,0-1.754-.863A2.075,2.075,0,0,0,74,8.43,3.925,3.925,0,0,0,73.345,10.867Zm9.414-4.32.039.938a3.122,3.122,0,0,1,2.508-1.094A2.417,2.417,0,0,1,87.72,7.75a3.2,3.2,0,0,1,1.1-.984,3.242,3.242,0,0,1,1.6-.375q2.781,0,2.828,2.945V15H91.8V9.422a1.941,1.941,0,0,0-.414-1.355,1.823,1.823,0,0,0-1.391-.449,1.916,1.916,0,0,0-1.336.48,1.949,1.949,0,0,0-.617,1.293V15H86.587V9.461a1.613,1.613,0,0,0-1.8-1.844,1.934,1.934,0,0,0-1.945,1.211V15H81.392V6.547Zm19.8,4.32a5.062,5.062,0,0,1-.883,3.109,2.829,2.829,0,0,1-2.391,1.18,3.1,3.1,0,0,1-2.422-.977v4.07H95.423V6.547h1.32l.07.938a2.977,2.977,0,0,1,2.453-1.094,2.882,2.882,0,0,1,2.41,1.148,5.117,5.117,0,0,1,.887,3.2Zm-1.445-.164a3.735,3.735,0,0,0-.609-2.258,1.963,1.963,0,0,0-1.672-.828,2.125,2.125,0,0,0-1.969,1.164V12.82a2.129,2.129,0,0,0,1.984,1.156,1.954,1.954,0,0,0,1.652-.824A4.077,4.077,0,0,0,101.119,10.7Zm8.5,4.3a3.036,3.036,0,0,1-.2-.891,3.225,3.225,0,0,1-2.406,1.047,2.984,2.984,0,0,1-2.051-.707,2.288,2.288,0,0,1-.8-1.793,2.39,2.39,0,0,1,1-2.051,4.733,4.733,0,0,1,2.824-.73h1.406V9.211A1.623,1.623,0,0,0,108.939,8a1.821,1.821,0,0,0-1.336-.449,2.108,2.108,0,0,0-1.3.391,1.151,1.151,0,0,0-.523.945h-1.453a2,2,0,0,1,.449-1.223A3.066,3.066,0,0,1,106,6.734a4.1,4.1,0,0,1,1.691-.344,3.342,3.342,0,0,1,2.289.73,2.635,2.635,0,0,1,.859,2.012v3.891a4.757,4.757,0,0,0,.3,1.852V15Zm-2.4-1.1a2.54,2.54,0,0,0,1.289-.352,2.127,2.127,0,0,0,.883-.914V10.9h-1.133q-2.656,0-2.656,1.555a1.316,1.316,0,0,0,.453,1.063A1.742,1.742,0,0,0,107.22,13.9Zm9.969-6.055a4.331,4.331,0,0,0-.711-.055A1.9,1.9,0,0,0,114.548,9v6H113.1V6.547h1.406l.023.977a2.251,2.251,0,0,1,2.016-1.133,1.477,1.477,0,0,1,.641.109Zm3.68-3.344V6.547h1.578V7.664h-1.578v5.249a1.173,1.173,0,0,0,.211.763.888.888,0,0,0,.719.254,3.5,3.5,0,0,0,.688-.094V15a4.215,4.215,0,0,1-1.109.155,1.8,1.8,0,0,1-1.461-.586,2.517,2.517,0,0,1-.492-1.664V7.664h-1.539V6.547h1.539V4.5ZM125.7,15h-1.445V6.547H125.7ZM124.142,4.3a.863.863,0,0,1,.215-.594.807.807,0,0,1,.637-.242.819.819,0,0,1,.641.242.854.854,0,0,1,.219.594.826.826,0,0,1-.219.586.834.834,0,0,1-.641.234.821.821,0,0,1-.637-.234A.834.834,0,0,1,124.142,4.3Zm3.523,6.4a4.952,4.952,0,0,1,.922-3.129,3.137,3.137,0,0,1,4.766-.168V3H134.8V15H133.47l-.07-.906a2.943,2.943,0,0,1-2.414,1.063,2.887,2.887,0,0,1-2.395-1.2,5.008,5.008,0,0,1-.926-3.141Zm1.445.164a3.749,3.749,0,0,0,.594,2.25,1.919,1.919,0,0,0,1.641.813,2.108,2.108,0,0,0,2.008-1.234V8.813a2.125,2.125,0,0,0-1.992-1.2,1.929,1.929,0,0,0-1.656.82A4.128,4.128,0,0,0,129.111,10.867Zm7.547-.172a4.993,4.993,0,0,1,.488-2.234,3.642,3.642,0,0,1,1.359-1.531,3.7,3.7,0,0,1,1.988-.539,3.565,3.565,0,0,1,2.793,1.2,4.6,4.6,0,0,1,1.066,3.18v.1a5.036,5.036,0,0,1-.473,2.215,3.589,3.589,0,0,1-1.352,1.527,3.743,3.743,0,0,1-2.02.547,3.556,3.556,0,0,1-2.785-1.2,4.575,4.575,0,0,1-1.066-3.164Zm1.453.172a3.616,3.616,0,0,0,.652,2.258,2.211,2.211,0,0,0,3.5-.012,3.954,3.954,0,0,0,.648-2.418,3.61,3.61,0,0,0-.66-2.254,2.1,2.1,0,0,0-1.754-.863,2.075,2.075,0,0,0-1.727.852A3.925,3.925,0,0,0,138.111,10.867Zm11.633-.172a4.993,4.993,0,0,1,.488-2.234,3.642,3.642,0,0,1,1.359-1.531,3.7,3.7,0,0,1,1.988-.539,3.565,3.565,0,0,1,2.793,1.2,4.6,4.6,0,0,1,1.066,3.18v.1a5.036,5.036,0,0,1-.473,2.215,3.589,3.589,0,0,1-1.352,1.527,3.743,3.743,0,0,1-2.02.547,3.556,3.556,0,0,1-2.785-1.2,4.575,4.575,0,0,1-1.066-3.164Zm1.453.172a3.616,3.616,0,0,0,.652,2.258,2.211,2.211,0,0,0,3.5-.012,3.954,3.954,0,0,0,.648-2.418,3.61,3.61,0,0,0-.66-2.254,2.1,2.1,0,0,0-1.754-.863,2.075,2.075,0,0,0-1.727.852A3.925,3.925,0,0,0,151.2,10.867ZM168.431,15a3.036,3.036,0,0,1-.2-.891,3.225,3.225,0,0,1-2.406,1.047,2.984,2.984,0,0,1-2.051-.707,2.287,2.287,0,0,1-.8-1.793,2.39,2.39,0,0,1,1-2.051,4.733,4.733,0,0,1,2.824-.73H168.2V9.211A1.623,1.623,0,0,0,167.751,8a1.821,1.821,0,0,0-1.336-.449,2.107,2.107,0,0,0-1.3.391,1.151,1.151,0,0,0-.523.945h-1.453a2,2,0,0,1,.449-1.223,3.066,3.066,0,0,1,1.219-.934,4.1,4.1,0,0,1,1.691-.344,3.342,3.342,0,0,1,2.289.73,2.635,2.635,0,0,1,.859,2.012v3.891a4.757,4.757,0,0,0,.3,1.852V15Zm-2.4-1.1a2.54,2.54,0,0,0,1.289-.352,2.127,2.127,0,0,0,.883-.914V10.9h-1.133q-2.656,0-2.656,1.555a1.316,1.316,0,0,0,.453,1.063A1.742,1.742,0,0,0,166.033,13.9Zm7.453,1.1H172.04V3h1.445Zm1.93-4.3a4.993,4.993,0,0,1,.488-2.234,3.642,3.642,0,0,1,1.359-1.531,3.7,3.7,0,0,1,1.988-.539,3.565,3.565,0,0,1,2.793,1.2,4.6,4.6,0,0,1,1.066,3.18v.1a5.036,5.036,0,0,1-.473,2.215,3.589,3.589,0,0,1-1.352,1.527,3.743,3.743,0,0,1-2.02.547,3.556,3.556,0,0,1-2.785-1.2,4.575,4.575,0,0,1-1.066-3.164Zm1.453.172a3.616,3.616,0,0,0,.652,2.258,2.211,2.211,0,0,0,3.5-.012,3.954,3.954,0,0,0,.648-2.418,3.61,3.61,0,0,0-.66-2.254,2.1,2.1,0,0,0-1.754-.863,2.075,2.075,0,0,0-1.727.852A3.925,3.925,0,0,0,176.869,10.867Zm9.547-4.32v9.43q0,2.438-2.211,2.438a2.7,2.7,0,0,1-.883-.14V17.125a2.794,2.794,0,0,0,.656.063.982.982,0,0,0,.738-.262,1.3,1.3,0,0,0,.254-.911V6.547ZM184.822,4.3a.867.867,0,0,1,.215-.59.79.79,0,0,1,.629-.246.819.819,0,0,1,.641.242.854.854,0,0,1,.219.594.826.826,0,0,1-.219.586.834.834,0,0,1-.641.234.808.808,0,0,1-.633-.234A.843.843,0,0,1,184.822,4.3ZM193.962,15a3.036,3.036,0,0,1-.2-.891,3.225,3.225,0,0,1-2.406,1.047,2.984,2.984,0,0,1-2.051-.707,2.287,2.287,0,0,1-.8-1.793,2.39,2.39,0,0,1,1-2.051,4.733,4.733,0,0,1,2.824-.73h1.406V9.211A1.623,1.623,0,0,0,193.283,8a1.821,1.821,0,0,0-1.336-.449,2.107,2.107,0,0,0-1.3.391,1.151,1.151,0,0,0-.523.945h-1.453a2,2,0,0,1,.449-1.223,3.066,3.066,0,0,1,1.219-.934,4.1,4.1,0,0,1,1.691-.344,3.342,3.342,0,0,1,2.289.73,2.635,2.635,0,0,1,.859,2.012v3.891a4.757,4.757,0,0,0,.3,1.852V15Zm-2.4-1.1a2.54,2.54,0,0,0,1.289-.352,2.127,2.127,0,0,0,.883-.914V10.9H192.6q-2.656,0-2.656,1.555a1.316,1.316,0,0,0,.453,1.063A1.742,1.742,0,0,0,191.564,13.9Zm7.242-7.352.039.938a3.122,3.122,0,0,1,2.508-1.094,2.417,2.417,0,0,1,2.414,1.359,3.2,3.2,0,0,1,1.1-.984,3.242,3.242,0,0,1,1.6-.375q2.781,0,2.828,2.945V15h-1.445V9.422a1.941,1.941,0,0,0-.414-1.355,1.823,1.823,0,0,0-1.391-.449,1.917,1.917,0,0,0-1.336.48,1.949,1.949,0,0,0-.617,1.293V15h-1.453V9.461a1.613,1.613,0,0,0-1.8-1.844,1.934,1.934,0,0,0-1.945,1.211V15h-1.445V6.547ZM213.04,15H211.6V6.547h1.445ZM211.478,4.3a.863.863,0,0,1,.215-.594.807.807,0,0,1,.637-.242.819.819,0,0,1,.641.242.854.854,0,0,1,.219.594.826.826,0,0,1-.219.586.834.834,0,0,1-.641.234.821.821,0,0,1-.637-.234A.834.834,0,0,1,211.478,4.3Zm7.383,10.852a3.693,3.693,0,0,1-2.8-1.129,4.19,4.19,0,0,1-1.078-3.02v-.266a5.073,5.073,0,0,1,.48-2.246,3.748,3.748,0,0,1,1.344-1.547,3.378,3.378,0,0,1,1.871-.559,3.166,3.166,0,0,1,2.563,1.086,4.7,4.7,0,0,1,.914,3.109v.6h-5.727a3,3,0,0,0,.73,2.02,2.3,2.3,0,0,0,1.777.77,2.517,2.517,0,0,0,1.3-.312,3.258,3.258,0,0,0,.93-.828l.883.688A3.55,3.55,0,0,1,218.861,15.156Zm-.18-7.578a1.928,1.928,0,0,0-1.469.637A3.1,3.1,0,0,0,216.478,10h4.234V9.891a2.753,2.753,0,0,0-.594-1.707A1.815,1.815,0,0,0,218.681,7.578ZM225.2,6.547l.047,1.063a3.08,3.08,0,0,1,2.531-1.219q2.68,0,2.7,3.023V15h-1.445V9.406a1.946,1.946,0,0,0-.418-1.352,1.675,1.675,0,0,0-1.277-.437,2.086,2.086,0,0,0-1.234.375,2.546,2.546,0,0,0-.828.984V15h-1.445V6.547ZM234.619,4.5V6.547H236.2V7.664h-1.578v5.249a1.173,1.173,0,0,0,.211.763.888.888,0,0,0,.719.254,3.5,3.5,0,0,0,.688-.094V15a4.215,4.215,0,0,1-1.109.155,1.8,1.8,0,0,1-1.461-.586,2.517,2.517,0,0,1-.492-1.664V7.664h-1.539V6.547h1.539V4.5Zm2.727,6.2a4.993,4.993,0,0,1,.488-2.234,3.642,3.642,0,0,1,1.359-1.531,3.7,3.7,0,0,1,1.988-.539,3.565,3.565,0,0,1,2.793,1.2,4.6,4.6,0,0,1,1.066,3.18v.1a5.036,5.036,0,0,1-.473,2.215,3.589,3.589,0,0,1-1.352,1.527,3.743,3.743,0,0,1-2.02.547,3.556,3.556,0,0,1-2.785-1.2,4.575,4.575,0,0,1-1.066-3.164Zm1.453.172a3.616,3.616,0,0,0,.652,2.258,2.211,2.211,0,0,0,3.5-.012A3.954,3.954,0,0,0,243.6,10.7a3.61,3.61,0,0,0-.66-2.254,2.1,2.1,0,0,0-1.754-.863,2.075,2.075,0,0,0-1.727.852A3.925,3.925,0,0,0,238.8,10.867ZM75.181,37.008l1.625-6.461h1.445L75.79,39H74.619l-2.055-6.406-2,6.406H69.392l-2.453-8.453h1.438l1.664,6.328,1.969-6.328h1.164Zm8.047,2.148a3.693,3.693,0,0,1-2.8-1.129,4.19,4.19,0,0,1-1.078-3.02v-.266a5.073,5.073,0,0,1,.48-2.246,3.748,3.748,0,0,1,1.344-1.547,3.378,3.378,0,0,1,1.871-.559,3.166,3.166,0,0,1,2.563,1.086,4.7,4.7,0,0,1,.914,3.109v.6H80.8a3,3,0,0,0,.73,2.02,2.3,2.3,0,0,0,1.777.77,2.517,2.517,0,0,0,1.3-.312,3.259,3.259,0,0,0,.93-.828l.883.688A3.55,3.55,0,0,1,83.228,39.156Zm-.18-7.578a1.928,1.928,0,0,0-1.469.637A3.1,3.1,0,0,0,80.845,34h4.234v-.109a2.753,2.753,0,0,0-.594-1.707A1.815,1.815,0,0,0,83.048,31.578Zm12.3,3.289a5.026,5.026,0,0,1-.891,3.113,2.846,2.846,0,0,1-2.391,1.176A2.947,2.947,0,0,1,89.6,38.023l-.07.977H88.2V27h1.445v4.477a2.93,2.93,0,0,1,2.414-1.086,2.863,2.863,0,0,1,2.418,1.164,5.177,5.177,0,0,1,.879,3.188ZM93.908,34.7a3.906,3.906,0,0,0-.57-2.281,1.888,1.888,0,0,0-1.641-.8,2.122,2.122,0,0,0-2.055,1.328V36.6a2.181,2.181,0,0,0,2.07,1.328,1.878,1.878,0,0,0,1.617-.8A4.153,4.153,0,0,0,93.908,34.7Zm10.617,3.273a2.082,2.082,0,0,0,1.352-.469,1.649,1.649,0,0,0,.641-1.172h1.367a2.621,2.621,0,0,1-.5,1.383,3.293,3.293,0,0,1-1.23,1.047,3.55,3.55,0,0,1-1.629.391A3.482,3.482,0,0,1,101.779,38a4.59,4.59,0,0,1-1.02-3.152v-.242a5.089,5.089,0,0,1,.453-2.2,3.451,3.451,0,0,1,1.3-1.492,3.7,3.7,0,0,1,2-.531,3.39,3.39,0,0,1,2.363.852,3.043,3.043,0,0,1,1,2.211h-1.367a1.992,1.992,0,0,0-.621-1.348,1.932,1.932,0,0,0-1.379-.527,2.023,2.023,0,0,0-1.707.793,3.724,3.724,0,0,0-.605,2.293v.273a3.65,3.65,0,0,0,.6,2.25A2.033,2.033,0,0,0,104.525,37.977Zm4.6-3.281a4.993,4.993,0,0,1,.488-2.234,3.643,3.643,0,0,1,1.359-1.531,3.7,3.7,0,0,1,1.988-.539,3.565,3.565,0,0,1,2.793,1.2,4.6,4.6,0,0,1,1.066,3.18v.1a5.036,5.036,0,0,1-.473,2.215A3.589,3.589,0,0,1,115,38.609a3.743,3.743,0,0,1-2.02.547,3.556,3.556,0,0,1-2.785-1.2,4.575,4.575,0,0,1-1.066-3.164Zm1.453.172a3.616,3.616,0,0,0,.652,2.258,2.211,2.211,0,0,0,3.5-.012,3.955,3.955,0,0,0,.648-2.418,3.61,3.61,0,0,0-.66-2.254,2.1,2.1,0,0,0-1.754-.863,2.075,2.075,0,0,0-1.727.852A3.925,3.925,0,0,0,110.579,34.867Zm9.414-4.32.039.938a3.122,3.122,0,0,1,2.508-1.094,2.417,2.417,0,0,1,2.414,1.359,3.2,3.2,0,0,1,1.1-.984,3.242,3.242,0,0,1,1.6-.375q2.781,0,2.828,2.945V39h-1.445V33.422a1.941,1.941,0,0,0-.414-1.355,1.823,1.823,0,0,0-1.391-.449,1.916,1.916,0,0,0-1.336.48,1.949,1.949,0,0,0-.617,1.293V39h-1.453V33.461a1.613,1.613,0,0,0-1.8-1.844,1.934,1.934,0,0,0-1.945,1.211V39h-1.445V30.547Zm19.8,4.32a5.062,5.062,0,0,1-.883,3.109,2.829,2.829,0,0,1-2.391,1.18,3.1,3.1,0,0,1-2.422-.977v4.07h-1.445v-11.7h1.32l.07.938a2.977,2.977,0,0,1,2.453-1.094,2.882,2.882,0,0,1,2.41,1.148,5.117,5.117,0,0,1,.887,3.2Zm-1.445-.164a3.735,3.735,0,0,0-.609-2.258,1.963,1.963,0,0,0-1.672-.828,2.125,2.125,0,0,0-1.969,1.164V36.82a2.129,2.129,0,0,0,1.984,1.156,1.954,1.954,0,0,0,1.652-.824A4.077,4.077,0,0,0,138.353,34.7Zm8.5,4.3a3.036,3.036,0,0,1-.2-.891,3.225,3.225,0,0,1-2.406,1.047,2.984,2.984,0,0,1-2.051-.707,2.287,2.287,0,0,1-.8-1.793,2.39,2.39,0,0,1,1-2.051,4.733,4.733,0,0,1,2.824-.73h1.406v-.664A1.623,1.623,0,0,0,146.173,32a1.821,1.821,0,0,0-1.336-.449,2.107,2.107,0,0,0-1.3.391,1.151,1.151,0,0,0-.523.945h-1.453a2,2,0,0,1,.449-1.223,3.066,3.066,0,0,1,1.219-.934,4.1,4.1,0,0,1,1.691-.344,3.342,3.342,0,0,1,2.289.73,2.635,2.635,0,0,1,.859,2.012v3.891a4.757,4.757,0,0,0,.3,1.852V39Zm-2.4-1.1a2.54,2.54,0,0,0,1.289-.352,2.127,2.127,0,0,0,.883-.914V34.9h-1.133q-2.656,0-2.656,1.555a1.316,1.316,0,0,0,.453,1.063A1.742,1.742,0,0,0,144.454,37.9Zm9.969-6.055a4.331,4.331,0,0,0-.711-.055A1.9,1.9,0,0,0,151.783,33v6h-1.445V30.547h1.406l.023.977a2.251,2.251,0,0,1,2.016-1.133,1.477,1.477,0,0,1,.641.109ZM158.1,28.5v2.047h1.578v1.117H158.1v5.249a1.173,1.173,0,0,0,.211.763.888.888,0,0,0,.719.254,3.5,3.5,0,0,0,.688-.094V39a4.215,4.215,0,0,1-1.109.155,1.8,1.8,0,0,1-1.461-.586,2.517,2.517,0,0,1-.492-1.664V31.664h-1.539V30.547h1.539V28.5ZM162.939,39h-1.445V30.547h1.445Zm-1.562-10.7a.863.863,0,0,1,.215-.594.807.807,0,0,1,.637-.242.819.819,0,0,1,.641.242.854.854,0,0,1,.219.594.826.826,0,0,1-.219.586.834.834,0,0,1-.641.234.821.821,0,0,1-.637-.234A.834.834,0,0,1,161.376,28.3Zm3.523,6.4a4.952,4.952,0,0,1,.922-3.129,3.137,3.137,0,0,1,4.766-.168V27h1.445V39H170.7l-.07-.906a2.943,2.943,0,0,1-2.414,1.063,2.887,2.887,0,0,1-2.395-1.2,5.008,5.008,0,0,1-.926-3.141Zm1.445.164a3.749,3.749,0,0,0,.594,2.25,1.919,1.919,0,0,0,1.641.813,2.108,2.108,0,0,0,2.008-1.234V32.813a2.125,2.125,0,0,0-1.992-1.2,1.929,1.929,0,0,0-1.656.82A4.128,4.128,0,0,0,166.345,34.867Zm7.547-.172a4.993,4.993,0,0,1,.488-2.234,3.642,3.642,0,0,1,1.359-1.531,3.7,3.7,0,0,1,1.988-.539,3.565,3.565,0,0,1,2.793,1.2,4.6,4.6,0,0,1,1.066,3.18v.1a5.036,5.036,0,0,1-.473,2.215,3.589,3.589,0,0,1-1.352,1.527,3.743,3.743,0,0,1-2.02.547,3.556,3.556,0,0,1-2.785-1.2,4.575,4.575,0,0,1-1.066-3.164Zm1.453.172A3.616,3.616,0,0,0,176,37.125a2.211,2.211,0,0,0,3.5-.012,3.954,3.954,0,0,0,.648-2.418,3.61,3.61,0,0,0-.66-2.254,2.1,2.1,0,0,0-1.754-.863A2.075,2.075,0,0,0,176,32.43,3.925,3.925,0,0,0,175.345,34.867Z" transform="translate(0 -8)" fill="#12263f"/>
    </g>
    <path id="Trazado_630108" data-name="Trazado 630108" d="M211.008,294.53h-72.3c-1.324-.187-1.324,1.537.286,1.245h72.014c2.191,0,3.967,1.18,3.967,2.636v65.517c0,.34.414.616.927.615h.019c.512,0,.927-.275.927-.616V298.411C216.848,296.268,214.233,294.53,211.008,294.53Z" transform="translate(392.72 2069.227)" fill="#fecb2f" stroke="#fecb2f" stroke-width="1.5"/>
    <path id="Trazado_630109" data-name="Trazado 630109" d="M111.612,294.53h66.441c.32-.038.379,2.509-.836,2.309s-65.605,0-65.605,0c-2.362,0-4.278,2.19-4.278,4.89V423.267a1.075,1.075,0,0,1-1,1.141h-.021a1.078,1.078,0,0,1-1-1.143V301.729C105.314,297.753,108.134,294.53,111.612,294.53Z" transform="translate(215.117 2069.227)" fill="#ffd45c" stroke="#fecb2f" stroke-width="1.5"/>
    <path id="Trazado_630110" data-name="Trazado 630110" d="M243.548,340.071H106.529c-.648,0-1.178-.168-1.213-.382v-.008c-.037-.229.519-.42,1.211-.42H243.548c2.865,0,5.188-.768,5.188-1.715V294.93c0-.221.542-.4,1.213-.4h.025c.669,0,1.213.179,1.213.4v42.616C251.187,338.941,247.767,340.071,243.548,340.071Z" transform="translate(358.381 2156.996)" fill="#ffd45c" stroke="#fecb2f" stroke-width="1.5"/>
    <path id="Trazado_630111" data-name="Trazado 630111" d="M112.953,340.071H249.973c.648,0,1.178-.168,1.213-.382v-.008c.037-.229-.519-.42-1.211-.42l-139.88-1.715c-2.865,0-4.78-27.159-4.78,0C105.314,338.941,108.735,340.071,112.953,340.071Z" transform="translate(215.117 2156.996)" fill="#fecb2f" stroke="#fecb2f" stroke-width="1.5"/>
    <path id="Trazado_630112" data-name="Trazado 630112" d="M326.36,370.188l-13.12-8v6.233H296.873l-.154-.481a33.772,33.772,0,0,1-3.367-.283c0,.835-.007,1.666-.007,2.52,0,.051,0,.1.009.15v.03l0,.014,0,.03,0,.016,0,.03,0,.014,0,.03a1.765,1.765,0,0,0,1.738,1.47h18.129V378.2Z" transform="translate(313.535 2065.503)" fill="#fecb2f"/>
    <g id="Grupo_883854" data-name="Grupo 883854" transform="translate(675.432 2429.672)">
      <path id="Trazado_630711" data-name="Trazado 630711" d="M13.189,9.93A7.053,7.053,0,0,1,10.38,8.566a2.6,2.6,0,0,1-.879-2,2.751,2.751,0,0,1,1.074-2.223,4.269,4.269,0,0,1,2.793-.879,4.66,4.66,0,0,1,2.09.453,3.436,3.436,0,0,1,1.422,1.25,3.2,3.2,0,0,1,.5,1.742H15.876a2.08,2.08,0,0,0-.656-1.627A2.669,2.669,0,0,0,13.369,4.7a2.732,2.732,0,0,0-1.73.489,1.632,1.632,0,0,0-.621,1.358,1.468,1.468,0,0,0,.59,1.178,5.785,5.785,0,0,0,2.008.88,9.316,9.316,0,0,1,2.219.88A3.367,3.367,0,0,1,17.021,10.6a2.861,2.861,0,0,1,.387,1.508,2.658,2.658,0,0,1-1.078,2.215,4.6,4.6,0,0,1-2.883.832,5.347,5.347,0,0,1-2.187-.449,3.681,3.681,0,0,1-1.566-1.23A3,3,0,0,1,9.142,11.7H10.65a1.959,1.959,0,0,0,.762,1.629,3.207,3.207,0,0,0,2.035.6,2.948,2.948,0,0,0,1.82-.484,1.573,1.573,0,0,0,.633-1.32,1.545,1.545,0,0,0-.586-1.293A6.755,6.755,0,0,0,13.189,9.93Zm9.422,5.227a3.693,3.693,0,0,1-2.8-1.129,4.19,4.19,0,0,1-1.078-3.02v-.266a5.073,5.073,0,0,1,.48-2.246A3.748,3.748,0,0,1,20.56,6.949a3.378,3.378,0,0,1,1.871-.559,3.166,3.166,0,0,1,2.563,1.086,4.7,4.7,0,0,1,.914,3.109v.6H20.181a3,3,0,0,0,.73,2.02,2.3,2.3,0,0,0,1.777.77,2.517,2.517,0,0,0,1.3-.312,3.259,3.259,0,0,0,.93-.828l.883.688A3.55,3.55,0,0,1,22.611,15.156Zm-.18-7.578a1.928,1.928,0,0,0-1.469.637A3.1,3.1,0,0,0,20.228,10h4.234V9.891a2.753,2.753,0,0,0-.594-1.707A1.815,1.815,0,0,0,22.431,7.578Zm9.234.266a4.331,4.331,0,0,0-.711-.055A1.9,1.9,0,0,0,29.025,9v6H27.579V6.547h1.406l.023.977a2.251,2.251,0,0,1,2.016-1.133,1.477,1.477,0,0,1,.641.109Zm4.258,5.2,2.094-6.492h1.477L36.462,15h-1.1L32.3,6.547h1.477ZM42.454,15H41.009V6.547h1.445ZM40.892,4.3a.863.863,0,0,1,.215-.594.807.807,0,0,1,.637-.242.819.819,0,0,1,.641.242A.854.854,0,0,1,42.6,4.3a.826.826,0,0,1-.219.586.834.834,0,0,1-.641.234.821.821,0,0,1-.637-.234A.834.834,0,0,1,40.892,4.3Zm3.523,6.4a4.952,4.952,0,0,1,.922-3.129A3.137,3.137,0,0,1,50.1,7.406V3h1.445V15H50.22l-.07-.906a2.943,2.943,0,0,1-2.414,1.063,2.887,2.887,0,0,1-2.395-1.2,5.008,5.008,0,0,1-.926-3.141Zm1.445.164a3.749,3.749,0,0,0,.594,2.25,1.92,1.92,0,0,0,1.641.813A2.108,2.108,0,0,0,50.1,12.7V8.813a2.125,2.125,0,0,0-1.992-1.2,1.929,1.929,0,0,0-1.656.82A4.128,4.128,0,0,0,45.861,10.867Zm7.547-.172A4.993,4.993,0,0,1,53.9,8.461,3.643,3.643,0,0,1,55.255,6.93a3.7,3.7,0,0,1,1.988-.539,3.565,3.565,0,0,1,2.793,1.2,4.6,4.6,0,0,1,1.066,3.18v.1a5.036,5.036,0,0,1-.473,2.215,3.589,3.589,0,0,1-1.352,1.527,3.743,3.743,0,0,1-2.02.547,3.556,3.556,0,0,1-2.785-1.2A4.575,4.575,0,0,1,53.408,10.8Zm1.453.172a3.616,3.616,0,0,0,.652,2.258,2.211,2.211,0,0,0,3.5-.012,3.955,3.955,0,0,0,.648-2.418A3.61,3.61,0,0,0,59,8.441a2.1,2.1,0,0,0-1.754-.863,2.075,2.075,0,0,0-1.727.852A3.925,3.925,0,0,0,54.861,10.867ZM67,7.844a4.331,4.331,0,0,0-.711-.055A1.9,1.9,0,0,0,64.361,9v6H62.915V6.547h1.406l.023.977a2.251,2.251,0,0,1,2.016-1.133A1.477,1.477,0,0,1,67,6.5Zm9.281,5.164,3.25-9.383h1.641L76.954,15H75.626L71.415,3.625h1.633ZM84.2,10.547V15H82.7V3.625h4.2a4.215,4.215,0,0,1,2.926.953A3.231,3.231,0,0,1,90.876,7.1a3.189,3.189,0,0,1-1.035,2.551,4.4,4.4,0,0,1-2.965.895Zm0-1.227h2.7a2.7,2.7,0,0,0,1.844-.567,2.075,2.075,0,0,0,.641-1.64,2.143,2.143,0,0,0-.641-1.628,2.525,2.525,0,0,0-1.758-.634H84.2Zm11.945.609a7.053,7.053,0,0,1-2.809-1.363,2.6,2.6,0,0,1-.879-2,2.751,2.751,0,0,1,1.074-2.223,4.269,4.269,0,0,1,2.793-.879,4.66,4.66,0,0,1,2.09.453,3.436,3.436,0,0,1,1.422,1.25,3.2,3.2,0,0,1,.5,1.742H98.829a2.08,2.08,0,0,0-.656-1.627A2.669,2.669,0,0,0,96.322,4.7a2.732,2.732,0,0,0-1.73.489,1.632,1.632,0,0,0-.621,1.358,1.468,1.468,0,0,0,.59,1.178,5.785,5.785,0,0,0,2.008.88,9.316,9.316,0,0,1,2.219.88A3.367,3.367,0,0,1,99.974,10.6a2.861,2.861,0,0,1,.387,1.508,2.658,2.658,0,0,1-1.078,2.215,4.6,4.6,0,0,1-2.883.832,5.347,5.347,0,0,1-2.187-.449,3.681,3.681,0,0,1-1.566-1.23A3,3,0,0,1,92.1,11.7H93.6a1.959,1.959,0,0,0,.762,1.629,3.207,3.207,0,0,0,2.035.6,2.948,2.948,0,0,0,1.82-.484,1.573,1.573,0,0,0,.633-1.32,1.545,1.545,0,0,0-.586-1.293A6.755,6.755,0,0,0,96.142,9.93Zm9.492.766a4.993,4.993,0,0,1,.488-2.234,3.643,3.643,0,0,1,1.359-1.531,3.7,3.7,0,0,1,1.988-.539,3.565,3.565,0,0,1,2.793,1.2,4.6,4.6,0,0,1,1.066,3.18v.1a5.036,5.036,0,0,1-.473,2.215,3.589,3.589,0,0,1-1.352,1.527,3.743,3.743,0,0,1-2.02.547,3.556,3.556,0,0,1-2.785-1.2,4.575,4.575,0,0,1-1.066-3.164Zm1.453.172a3.616,3.616,0,0,0,.652,2.258,2.211,2.211,0,0,0,3.5-.012,3.955,3.955,0,0,0,.648-2.418,3.61,3.61,0,0,0-.66-2.254,2.1,2.1,0,0,0-1.754-.863,2.075,2.075,0,0,0-1.727.852A3.925,3.925,0,0,0,107.087,10.867Zm20.609.523a4.185,4.185,0,0,1-1.332,2.785,4.365,4.365,0,0,1-2.98.98,4.008,4.008,0,0,1-3.23-1.445,5.815,5.815,0,0,1-1.215-3.867V8.75a6.481,6.481,0,0,1,.566-2.789,4.231,4.231,0,0,1,1.605-1.848,4.47,4.47,0,0,1,2.406-.645,4.11,4.11,0,0,1,2.906,1.012,4.235,4.235,0,0,1,1.273,2.8h-1.508a3.268,3.268,0,0,0-.848-1.975,2.565,2.565,0,0,0-1.824-.611,2.684,2.684,0,0,0-2.254,1.063,4.882,4.882,0,0,0-.816,3.026v1.1a5.018,5.018,0,0,0,.773,2.948,2.5,2.5,0,0,0,2.164,1.095,2.886,2.886,0,0,0,1.918-.566,3.143,3.143,0,0,0,.887-1.973ZM131.087,15h-1.445V3h1.445Zm1.93-4.3a4.993,4.993,0,0,1,.488-2.234,3.642,3.642,0,0,1,1.359-1.531,3.7,3.7,0,0,1,1.988-.539,3.565,3.565,0,0,1,2.793,1.2,4.6,4.6,0,0,1,1.066,3.18v.1a5.036,5.036,0,0,1-.473,2.215,3.589,3.589,0,0,1-1.352,1.527,3.743,3.743,0,0,1-2.02.547,3.556,3.556,0,0,1-2.785-1.2,4.575,4.575,0,0,1-1.066-3.164Zm1.453.172a3.616,3.616,0,0,0,.652,2.258,2.211,2.211,0,0,0,3.5-.012,3.954,3.954,0,0,0,.648-2.418,3.61,3.61,0,0,0-.66-2.254,2.1,2.1,0,0,0-1.754-.863,2.075,2.075,0,0,0-1.727.852A3.925,3.925,0,0,0,134.47,10.867Zm13.273,3.3a3.07,3.07,0,0,1-2.477.992,2.628,2.628,0,0,1-2.059-.785,3.4,3.4,0,0,1-.715-2.324v-5.5h1.445v5.461q0,1.922,1.563,1.922a2.163,2.163,0,0,0,2.2-1.234V6.547h1.445V15h-1.375Zm3.25-3.461a4.952,4.952,0,0,1,.922-3.129,3.137,3.137,0,0,1,4.766-.168V3h1.445V15H156.8l-.07-.906a2.943,2.943,0,0,1-2.414,1.063,2.887,2.887,0,0,1-2.395-1.2,5.008,5.008,0,0,1-.926-3.141Zm1.445.164a3.749,3.749,0,0,0,.594,2.25,1.919,1.919,0,0,0,1.641.813,2.108,2.108,0,0,0,2.008-1.234V8.813a2.125,2.125,0,0,0-1.992-1.2,1.929,1.929,0,0,0-1.656.82A4.128,4.128,0,0,0,152.439,10.867ZM173.3,15H171.79V9.742h-5.734V15h-1.5V3.625h1.5V8.516h5.734V3.625H173.3Zm2.055-4.3a4.993,4.993,0,0,1,.488-2.234A3.642,3.642,0,0,1,177.2,6.93a3.7,3.7,0,0,1,1.988-.539,3.565,3.565,0,0,1,2.793,1.2,4.6,4.6,0,0,1,1.066,3.18v.1a5.036,5.036,0,0,1-.473,2.215,3.589,3.589,0,0,1-1.352,1.527,3.743,3.743,0,0,1-2.02.547,3.556,3.556,0,0,1-2.785-1.2,4.575,4.575,0,0,1-1.066-3.164Zm1.453.172a3.616,3.616,0,0,0,.652,2.258,2.211,2.211,0,0,0,3.5-.012A3.954,3.954,0,0,0,181.6,10.7a3.61,3.61,0,0,0-.66-2.254,2.1,2.1,0,0,0-1.754-.863,2.075,2.075,0,0,0-1.727.852A3.925,3.925,0,0,0,176.806,10.867Zm12.977,1.891a1.064,1.064,0,0,0-.441-.91,4.249,4.249,0,0,0-1.539-.559,7.277,7.277,0,0,1-1.742-.562,2.479,2.479,0,0,1-.953-.781,1.869,1.869,0,0,1-.309-1.078,2.193,2.193,0,0,1,.879-1.758,3.432,3.432,0,0,1,2.246-.719,3.532,3.532,0,0,1,2.332.742,2.357,2.357,0,0,1,.895,1.9H189.7a1.3,1.3,0,0,0-.5-1.023,1.888,1.888,0,0,0-1.27-.43,1.976,1.976,0,0,0-1.234.344,1.082,1.082,0,0,0-.445.9.877.877,0,0,0,.414.789,5.1,5.1,0,0,0,1.5.508,7.8,7.8,0,0,1,1.754.578,2.558,2.558,0,0,1,1,.809,1.988,1.988,0,0,1,.324,1.152,2.163,2.163,0,0,1-.906,1.816,3.8,3.8,0,0,1-2.352.684,4.257,4.257,0,0,1-1.8-.359,2.922,2.922,0,0,1-1.223-1,2.42,2.42,0,0,1-.441-1.395h1.445a1.5,1.5,0,0,0,.582,1.152,2.258,2.258,0,0,0,1.434.426,2.331,2.331,0,0,0,1.316-.332A1.02,1.02,0,0,0,189.783,12.758ZM195.072,4.5V6.547h1.578V7.664h-1.578v5.249a1.173,1.173,0,0,0,.211.763.888.888,0,0,0,.719.254,3.5,3.5,0,0,0,.688-.094V15a4.215,4.215,0,0,1-1.109.155,1.8,1.8,0,0,1-1.461-.586,2.517,2.517,0,0,1-.492-1.664V7.664h-1.539V6.547h1.539V4.5ZM199.908,15h-1.445V6.547h1.445ZM198.345,4.3a.863.863,0,0,1,.215-.594.807.807,0,0,1,.637-.242.819.819,0,0,1,.641.242.854.854,0,0,1,.219.594.826.826,0,0,1-.219.586.834.834,0,0,1-.641.234.821.821,0,0,1-.637-.234A.834.834,0,0,1,198.345,4.3Zm5.242,2.242.047,1.063a3.08,3.08,0,0,1,2.531-1.219q2.68,0,2.7,3.023V15h-1.445V9.406a1.946,1.946,0,0,0-.418-1.352,1.675,1.675,0,0,0-1.277-.437,2.086,2.086,0,0,0-1.234.375,2.546,2.546,0,0,0-.828.984V15H202.22V6.547ZM210.7,10.7a4.968,4.968,0,0,1,.914-3.145,3.151,3.151,0,0,1,4.836-.074l.07-.937h1.32V14.8a3.439,3.439,0,0,1-.973,2.586,3.589,3.589,0,0,1-2.613.945,4.348,4.348,0,0,1-1.789-.391,3.08,3.08,0,0,1-1.336-1.07l.75-.867a2.826,2.826,0,0,0,2.273,1.148,2.214,2.214,0,0,0,1.645-.594,2.269,2.269,0,0,0,.59-1.672v-.727a2.971,2.971,0,0,1-2.367,1,2.887,2.887,0,0,1-2.4-1.2A5.224,5.224,0,0,1,210.7,10.7Zm1.453.164a3.79,3.79,0,0,0,.586,2.246,1.9,1.9,0,0,0,1.641.816,2.117,2.117,0,0,0,2.008-1.242V8.828A2.142,2.142,0,0,0,214.4,7.617a1.921,1.921,0,0,0-1.648.82A4.128,4.128,0,0,0,212.158,10.867Zm11.477-.164a4.952,4.952,0,0,1,.922-3.129,3.137,3.137,0,0,1,4.766-.168V3h1.445V15h-1.328l-.07-.906a2.943,2.943,0,0,1-2.414,1.063,2.887,2.887,0,0,1-2.395-1.2,5.008,5.008,0,0,1-.926-3.141Zm1.445.164a3.749,3.749,0,0,0,.594,2.25,1.919,1.919,0,0,0,1.641.813,2.108,2.108,0,0,0,2.008-1.234V8.813a2.125,2.125,0,0,0-1.992-1.2,1.929,1.929,0,0,0-1.656.82A4.128,4.128,0,0,0,225.079,10.867Zm11.438,4.289a3.693,3.693,0,0,1-2.8-1.129,4.19,4.19,0,0,1-1.078-3.02v-.266a5.073,5.073,0,0,1,.48-2.246,3.748,3.748,0,0,1,1.344-1.547,3.378,3.378,0,0,1,1.871-.559A3.166,3.166,0,0,1,238.9,7.477a4.7,4.7,0,0,1,.914,3.109v.6h-5.727a3,3,0,0,0,.73,2.02,2.3,2.3,0,0,0,1.777.77,2.517,2.517,0,0,0,1.3-.312,3.258,3.258,0,0,0,.93-.828l.883.688A3.55,3.55,0,0,1,236.517,15.156Zm-.18-7.578a1.928,1.928,0,0,0-1.469.637A3.1,3.1,0,0,0,234.134,10h4.234V9.891a2.753,2.753,0,0,0-.594-1.707A1.815,1.815,0,0,0,236.337,7.578ZM92.912,35.414l.219,1.5.32-1.352,2.25-7.937h1.266l2.2,7.938.313,1.375.242-1.531,1.766-7.781h1.508L100.232,39H98.865l-2.344-8.289-.18-.867-.18.867L93.732,39H92.365l-2.75-11.375h1.5ZM113.4,39h-1.508l-5.727-8.766V39h-1.508V27.625h1.508l5.742,8.8v-8.8H113.4Zm4.164-4.453V39h-1.5V27.625h4.2a4.215,4.215,0,0,1,2.926.953A3.231,3.231,0,0,1,124.24,31.1a3.189,3.189,0,0,1-1.035,2.551,4.4,4.4,0,0,1-2.965.895Zm0-1.227h2.7a2.7,2.7,0,0,0,1.844-.567,2.075,2.075,0,0,0,.641-1.64,2.143,2.143,0,0,0-.641-1.628,2.525,2.525,0,0,0-1.758-.634H117.56Zm7.883,1.375a4.993,4.993,0,0,1,.488-2.234,3.643,3.643,0,0,1,1.359-1.531,3.7,3.7,0,0,1,1.988-.539,3.565,3.565,0,0,1,2.793,1.2,4.6,4.6,0,0,1,1.066,3.18v.1a5.036,5.036,0,0,1-.473,2.215,3.589,3.589,0,0,1-1.352,1.527,3.743,3.743,0,0,1-2.02.547,3.556,3.556,0,0,1-2.785-1.2,4.575,4.575,0,0,1-1.066-3.164Zm1.453.172a3.616,3.616,0,0,0,.652,2.258,2.211,2.211,0,0,0,3.5-.012,3.954,3.954,0,0,0,.648-2.418,3.61,3.61,0,0,0-.66-2.254,2.1,2.1,0,0,0-1.754-.863,2.075,2.075,0,0,0-1.727.852A3.925,3.925,0,0,0,126.9,34.867Zm15.539,2.141,1.625-6.461h1.445L143.044,39h-1.172l-2.055-6.406-2,6.406h-1.172l-2.453-8.453h1.438l1.664,6.328,1.969-6.328h1.164Zm8.047,2.148a3.693,3.693,0,0,1-2.8-1.129,4.19,4.19,0,0,1-1.078-3.02v-.266a5.073,5.073,0,0,1,.48-2.246,3.748,3.748,0,0,1,1.344-1.547,3.378,3.378,0,0,1,1.871-.559,3.166,3.166,0,0,1,2.563,1.086,4.7,4.7,0,0,1,.914,3.109v.6h-5.727a3,3,0,0,0,.73,2.02,2.3,2.3,0,0,0,1.777.77,2.517,2.517,0,0,0,1.3-.312,3.258,3.258,0,0,0,.93-.828l.883.688A3.55,3.55,0,0,1,150.482,39.156Zm-.18-7.578a1.928,1.928,0,0,0-1.469.637A3.1,3.1,0,0,0,148.1,34h4.234v-.109a2.753,2.753,0,0,0-.594-1.707A1.815,1.815,0,0,0,150.3,31.578Zm9.234.266a4.331,4.331,0,0,0-.711-.055A1.9,1.9,0,0,0,156.9,33v6h-1.445V30.547h1.406l.023.977a2.251,2.251,0,0,1,2.016-1.133,1.477,1.477,0,0,1,.641.109Z" transform="translate(0 -8)" fill="#12263f"/>
    </g>
    <path id="Trazado_630113" data-name="Trazado 630113" d="M211.008,294.53H106.243c-.5,0-.9.259-.927.587v.013c-.028.352.4.645.926.645H211.008c2.191,0,3.967,1.18,3.967,2.636v65.517c0,.34.414.616.927.615h.019c.512,0,.927-.275.927-.616V298.411C216.848,296.268,214.233,294.53,211.008,294.53Z" transform="translate(727.72 2072.227)" fill="#fecb2f" stroke="#fecb2f" stroke-width="1.5"/>
    <path id="Trazado_630114" data-name="Trazado 630114" d="M111.612,294.53h66.441c.32-.038.379,2.509-.836,2.309s-65.605,0-65.605,0c-2.362,0-4.278,2.19-4.278,4.89V423.267a1.075,1.075,0,0,1-1,1.141h-.021a1.078,1.078,0,0,1-1-1.143V301.729C105.314,297.753,108.134,294.53,111.612,294.53Z" transform="translate(550.117 2072.227)" fill="#ffd45c" stroke="#fecb2f" stroke-width="1.5"/>
    <path id="Trazado_630115" data-name="Trazado 630115" d="M243.548,340.071H106.529c-.648,0-1.178-.168-1.213-.382v-.008c-.037-.229.519-.42,1.211-.42H243.548c2.865,0,5.188-.768,5.188-1.715V294.93c0-.221.542-.4,1.213-.4h.025c.669,0,1.213.179,1.213.4v42.616C251.187,338.941,247.767,340.071,243.548,340.071Z" transform="translate(693.381 2159.996)" fill="#ffd45c" stroke="#fecb2f" stroke-width="1.5"/>
    <path id="Trazado_630116" data-name="Trazado 630116" d="M112.953,340.071H249.973c.648,0,1.178-.168,1.213-.382v-.008c.037-.229-.519-.42-1.211-.42l-139.88-1.715c-2.865,0-4.78-27.159-4.78,0C105.314,338.941,108.735,340.071,112.953,340.071Z" transform="translate(550.117 2159.996)" fill="#fecb2f" stroke="#fecb2f" stroke-width="1.5"/>
    <g id="Grupo_883855" data-name="Grupo 883855" transform="translate(717.536 2269)">
      <g id="Grupo_883819" data-name="Grupo 883819" transform="translate(0 0)">
        <line id="Línea_775" data-name="Línea 775" x2="13.156" transform="translate(30.403 128.11)" fill="none" stroke="#405366" stroke-miterlimit="10" stroke-width="2"/>
        <line id="Línea_776" data-name="Línea 776" x2="14.167" transform="translate(83.025 128.11)" fill="none" stroke="#405366" stroke-miterlimit="10" stroke-width="2"/>
        <g id="Grupo_883817" data-name="Grupo 883817" transform="translate(29.391 101.799)">
          <rect id="Rectángulo_298700" data-name="Rectángulo 298700" width="68.813" height="16.191" transform="translate(0 0)" fill="none" stroke="#405366" stroke-miterlimit="10" stroke-width="2"/>
          <line id="Línea_777" data-name="Línea 777" x2="4.048" transform="translate(14.167 8.096)" fill="none" stroke="#405366" stroke-miterlimit="10" stroke-width="2"/>
          <line id="Línea_778" data-name="Línea 778" x2="3.036" transform="translate(22.263 8.096)" fill="none" stroke="#405366" stroke-miterlimit="10" stroke-width="2"/>
          <line id="Línea_779" data-name="Línea 779" x2="2.024" transform="translate(29.347 8.096)" fill="none" stroke="#405366" stroke-miterlimit="10" stroke-width="2"/>
          <line id="Línea_780" data-name="Línea 780" x2="24.287" transform="translate(38.455 8.096)" fill="none" stroke="#405366" stroke-miterlimit="10" stroke-width="2"/>
          <line id="Línea_781" data-name="Línea 781" x2="6.072" transform="translate(5.06 8.096)" fill="none" stroke="#405366" stroke-miterlimit="10" stroke-width="2"/>
        </g>
        <g id="Grupo_883818" data-name="Grupo 883818" transform="translate(29.391 85.608)">
          <rect id="Rectángulo_298701" data-name="Rectángulo 298701" width="68.813" height="16.191" transform="translate(0 0)" fill="none" stroke="#405366" stroke-miterlimit="10" stroke-width="2"/>
          <line id="Línea_782" data-name="Línea 782" x2="4.048" transform="translate(14.167 10.12)" fill="none" stroke="#405366" stroke-miterlimit="10" stroke-width="2"/>
          <line id="Línea_783" data-name="Línea 783" x2="3.036" transform="translate(22.263 10.12)" fill="none" stroke="#405366" stroke-miterlimit="10" stroke-width="2"/>
          <line id="Línea_784" data-name="Línea 784" x2="2.024" transform="translate(29.347 10.12)" fill="none" stroke="#405366" stroke-miterlimit="10" stroke-width="2"/>
          <line id="Línea_785" data-name="Línea 785" x2="24.287" transform="translate(38.455 10.12)" fill="none" stroke="#405366" stroke-miterlimit="10" stroke-width="2"/>
          <line id="Línea_786" data-name="Línea 786" x2="6.072" transform="translate(5.06 10.12)" fill="none" stroke="#405366" stroke-miterlimit="10" stroke-width="2"/>
        </g>
        <rect id="Rectángulo_298702" data-name="Rectángulo 298702" width="68.813" height="15.179" transform="translate(29.391 70.428)" fill="none" stroke="#405366" stroke-miterlimit="10" stroke-width="2"/>
        <line id="Línea_787" data-name="Línea 787" x2="4.048" transform="translate(43.559 78.523)" fill="none" stroke="#405366" stroke-miterlimit="10" stroke-width="2"/>
        <line id="Línea_788" data-name="Línea 788" x2="6.072" transform="translate(34.451 78.523)" fill="none" stroke="#405366" stroke-miterlimit="10" stroke-width="2"/>
        <line id="Línea_789" data-name="Línea 789" x2="3.036" transform="translate(51.654 78.523)" fill="none" stroke="#405366" stroke-miterlimit="10" stroke-width="2"/>
        <line id="Línea_790" data-name="Línea 790" x2="2.024" transform="translate(58.738 78.523)" fill="none" stroke="#405366" stroke-miterlimit="10" stroke-width="2"/>
        <line id="Línea_791" data-name="Línea 791" x2="24.287" transform="translate(67.846 78.523)" fill="none" stroke="#405366" stroke-miterlimit="10" stroke-width="2"/>
        <path id="Trazado_630033" data-name="Trazado 630033" d="M515.242,317.588h12.28a16.374,16.374,0,0,0,0-32.747A20.464,20.464,0,0,0,493.4,269.6a30.706,30.706,0,0,0-59.985,7.46,20.468,20.468,0,0,0,4.05,40.531h8.187" transform="translate(-417 -248)" fill="none" stroke="#405366" stroke-miterlimit="10" stroke-width="2"/>
        <ellipse id="Elipse_6612" data-name="Elipse 6612" cx="5.566" cy="7.084" rx="5.566" ry="7.084" transform="translate(88.085 25.901)" fill="none" stroke="#405366" stroke-miterlimit="10" stroke-width="2"/>
        <ellipse id="Elipse_6613" data-name="Elipse 6613" cx="7.084" cy="6.072" rx="7.084" ry="6.072" transform="translate(6.116 43.105)" fill="none" stroke="#405366" stroke-miterlimit="10" stroke-width="2"/>
        <ellipse id="Elipse_6614" data-name="Elipse 6614" cx="6.578" cy="6.072" rx="6.578" ry="6.072" transform="translate(34.451 11.734)" fill="none" stroke="#405366" stroke-miterlimit="10" stroke-width="2"/>
        <path id="Trazado_630034" data-name="Trazado 630034" d="M454.327,308.168V287.7l-4.093-10.234V257H440" transform="translate(-392.926 -238.58)" fill="none" stroke="#405366" stroke-miterlimit="10" stroke-width="2"/>
        <path id="Trazado_630035" data-name="Trazado 630035" d="M448.514,298.747V266h-12.28L426,274.187" transform="translate(-407.58 -229.159)" fill="none" stroke="#405366" stroke-miterlimit="10" stroke-width="2"/>
        <path id="Trazado_630036" data-name="Trazado 630036" d="M457,298.747V272.14l7.163-6.14" transform="translate(-375.132 -229.159)" fill="none" stroke="#405366" stroke-miterlimit="10" stroke-width="2"/>
      </g>
    </g>
    <path id="Trazado_630117" data-name="Trazado 630117" d="M326.36,370.188l-13.12-8v6.233H296.873l-.154-.481a33.772,33.772,0,0,1-3.367-.283c0,.835-.007,1.666-.007,2.52,0,.051,0,.1.009.15v.03l0,.014,0,.03,0,.016,0,.03,0,.014,0,.03a1.765,1.765,0,0,0,1.738,1.47h18.129V378.2Z" transform="translate(648.535 2068.503)" fill="#fecb2f"/>
    <g id="Grupo_883857" data-name="Grupo 883857" transform="translate(1010.432 2440.672)">
      <path id="Trazado_630710" data-name="Trazado 630710" d="M66.079,12.016A1.2,1.2,0,0,0,65.611,11a6.148,6.148,0,0,0-1.687-.75,11.963,11.963,0,0,1-1.93-.777,3.153,3.153,0,0,1-1.937-2.82A2.747,2.747,0,0,1,60.576,5a3.389,3.389,0,0,1,1.492-1.129,5.616,5.616,0,0,1,2.184-.406,5.112,5.112,0,0,1,2.172.441A3.458,3.458,0,0,1,67.9,5.156a3.261,3.261,0,0,1,.527,1.828H66.087A1.534,1.534,0,0,0,65.6,5.77a2.023,2.023,0,0,0-1.383-.434,2.162,2.162,0,0,0-1.336.363,1.146,1.146,0,0,0-.477.957,1.1,1.1,0,0,0,.559.93,6.311,6.311,0,0,0,1.645.7,7.106,7.106,0,0,1,2.914,1.492A2.972,2.972,0,0,1,68.431,12a2.737,2.737,0,0,1-1.117,2.316,4.891,4.891,0,0,1-3.008.84,5.808,5.808,0,0,1-2.391-.48,3.783,3.783,0,0,1-1.645-1.316,3.371,3.371,0,0,1-.566-1.937h2.352q0,1.883,2.25,1.883a2.189,2.189,0,0,0,1.3-.34A1.106,1.106,0,0,0,66.079,12.016Zm7.68,3.141a4.15,4.15,0,0,1-3.027-1.141,4.054,4.054,0,0,1-1.168-3.039v-.219a5.106,5.106,0,0,1,.492-2.277,3.612,3.612,0,0,1,1.395-1.547,3.914,3.914,0,0,1,2.059-.543,3.508,3.508,0,0,1,2.73,1.094,4.444,4.444,0,0,1,1,3.1v.922H71.853a2.1,2.1,0,0,0,.66,1.328,2,2,0,0,0,1.395.5,2.437,2.437,0,0,0,2.039-.945l1.109,1.242a3.389,3.389,0,0,1-1.375,1.121A4.511,4.511,0,0,1,73.759,15.156ZM73.5,8.211a1.411,1.411,0,0,0-1.09.455,2.357,2.357,0,0,0-.535,1.3h3.141V9.788a1.681,1.681,0,0,0-.406-1.165A1.456,1.456,0,0,0,73.5,8.211Zm9.766.453a6.134,6.134,0,0,0-.812-.062,1.654,1.654,0,0,0-1.68.867V15H78.517V6.547H80.65l.063,1.008A2.092,2.092,0,0,1,82.6,6.391a2.366,2.366,0,0,1,.7.1Zm4.391,3.578,1.57-5.7h2.359L88.736,15H86.579L83.728,6.547h2.359ZM94.962,15H92.7V6.547h2.266Zm-2.4-10.641a1.112,1.112,0,0,1,.34-.836,1.465,1.465,0,0,1,1.848,0,1.105,1.105,0,0,1,.344.836,1.108,1.108,0,0,1-.348.844,1.448,1.448,0,0,1-1.836,0A1.108,1.108,0,0,1,92.564,4.359Zm3.906,6.352a5.094,5.094,0,0,1,.887-3.148,2.877,2.877,0,0,1,2.426-1.172,2.589,2.589,0,0,1,2.039.922V3h2.266V15h-2.039l-.109-.9a2.657,2.657,0,0,1-2.172,1.055,2.869,2.869,0,0,1-2.395-1.176A5.258,5.258,0,0,1,96.47,10.711Zm2.258.161a3.355,3.355,0,0,0,.414,1.829,1.348,1.348,0,0,0,1.2.636,1.51,1.51,0,0,0,1.477-.887V9.1a1.489,1.489,0,0,0-1.461-.887Q98.728,8.211,98.728,10.872Zm6.758-.176a5.013,5.013,0,0,1,.484-2.242,3.546,3.546,0,0,1,1.395-1.523,4.069,4.069,0,0,1,2.113-.539,3.849,3.849,0,0,1,2.793,1.047,4.2,4.2,0,0,1,1.207,2.844l.016.578a4.418,4.418,0,0,1-1.086,3.121,4.209,4.209,0,0,1-5.832,0,4.5,4.5,0,0,1-1.09-3.187Zm2.258.16A3.16,3.16,0,0,0,108.2,12.7a1.628,1.628,0,0,0,2.578.008,3.457,3.457,0,0,0,.461-2.015,3.128,3.128,0,0,0-.461-1.831,1.5,1.5,0,0,0-1.3-.649,1.474,1.474,0,0,0-1.281.646A3.516,3.516,0,0,0,107.744,10.856Zm11.891-2.192a6.134,6.134,0,0,0-.812-.062,1.654,1.654,0,0,0-1.68.867V15h-2.258V6.547h2.133l.063,1.008a2.092,2.092,0,0,1,1.883-1.164,2.366,2.366,0,0,1,.7.1Zm4.719,2.047a5.094,5.094,0,0,1,.887-3.148,2.877,2.877,0,0,1,2.426-1.172,2.589,2.589,0,0,1,2.039.922V3h2.266V15h-2.039l-.109-.9a2.657,2.657,0,0,1-2.172,1.055,2.869,2.869,0,0,1-2.395-1.176A5.258,5.258,0,0,1,124.353,10.711Zm2.258.161a3.355,3.355,0,0,0,.414,1.829,1.348,1.348,0,0,0,1.2.636,1.51,1.51,0,0,0,1.477-.887V9.1a1.489,1.489,0,0,0-1.461-.887Q126.611,8.211,126.611,10.872Zm11,4.285a4.15,4.15,0,0,1-3.027-1.141,4.054,4.054,0,0,1-1.168-3.039v-.219a5.106,5.106,0,0,1,.492-2.277A3.612,3.612,0,0,1,135.3,6.934a3.914,3.914,0,0,1,2.059-.543,3.508,3.508,0,0,1,2.73,1.094,4.444,4.444,0,0,1,1,3.1v.922H135.7a2.1,2.1,0,0,0,.66,1.328,2,2,0,0,0,1.395.5,2.437,2.437,0,0,0,2.039-.945l1.109,1.242a3.389,3.389,0,0,1-1.375,1.121A4.511,4.511,0,0,1,137.611,15.156Zm-.258-6.945a1.411,1.411,0,0,0-1.09.455,2.357,2.357,0,0,0-.535,1.3h3.141V9.788a1.681,1.681,0,0,0-.406-1.165A1.456,1.456,0,0,0,137.353,8.211Zm4.664,2.5a5.094,5.094,0,0,1,.887-3.148,2.877,2.877,0,0,1,2.426-1.172,2.589,2.589,0,0,1,2.039.922V3h2.266V15H147.6l-.109-.9a2.657,2.657,0,0,1-2.172,1.055,2.869,2.869,0,0,1-2.395-1.176A5.258,5.258,0,0,1,142.017,10.711Zm2.258.161a3.355,3.355,0,0,0,.414,1.829,1.348,1.348,0,0,0,1.2.636,1.51,1.51,0,0,0,1.477-.887V9.1a1.489,1.489,0,0,0-1.461-.887Q144.275,8.211,144.275,10.872ZM153.767,15H151.5V6.547h2.266Zm-2.4-10.641a1.112,1.112,0,0,1,.34-.836,1.465,1.465,0,0,1,1.848,0,1.105,1.105,0,0,1,.344.836,1.109,1.109,0,0,1-.348.844,1.448,1.448,0,0,1-1.836,0A1.109,1.109,0,0,1,151.369,4.359Zm7.773,8.977a1.481,1.481,0,0,0,1.016-.344,1.2,1.2,0,0,0,.406-.914h2.117a2.9,2.9,0,0,1-.469,1.574,3.093,3.093,0,0,1-1.262,1.109,3.949,3.949,0,0,1-1.77.395A3.67,3.67,0,0,1,156.322,14a4.56,4.56,0,0,1-1.047-3.184v-.148a4.508,4.508,0,0,1,1.039-3.117,3.627,3.627,0,0,1,2.852-1.164,3.555,3.555,0,0,1,2.543.9,3.2,3.2,0,0,1,.973,2.4h-2.117a1.551,1.551,0,0,0-.406-1.072,1.51,1.51,0,0,0-2.223.163,3.333,3.333,0,0,0-.4,1.866v.235a3.375,3.375,0,0,0,.4,1.878A1.377,1.377,0,0,0,159.142,13.336ZM168.869,15a2.507,2.507,0,0,1-.227-.758,2.732,2.732,0,0,1-2.133.914,3,3,0,0,1-2.059-.719,2.312,2.312,0,0,1-.816-1.812,2.389,2.389,0,0,1,1-2.062,4.915,4.915,0,0,1,2.879-.727h1.039V9.352a1.393,1.393,0,0,0-.3-.937,1.183,1.183,0,0,0-.949-.352,1.345,1.345,0,0,0-.895.273.929.929,0,0,0-.324.75h-2.258a2.268,2.268,0,0,1,.453-1.359,3,3,0,0,1,1.281-.98,4.669,4.669,0,0,1,1.859-.355,3.689,3.689,0,0,1,2.48.785,2.747,2.747,0,0,1,.918,2.207v3.664a4.041,4.041,0,0,0,.336,1.82V15ZM167,13.43a1.945,1.945,0,0,0,.922-.223,1.462,1.462,0,0,0,.625-.6V11.156H167.7q-1.7,0-1.8,1.172l-.008.133a.9.9,0,0,0,.3.7A1.153,1.153,0,0,0,167,13.43Zm5.2-2.719a5.094,5.094,0,0,1,.887-3.148,2.877,2.877,0,0,1,2.426-1.172,2.589,2.589,0,0,1,2.039.922V3h2.266V15h-2.039l-.109-.9a2.657,2.657,0,0,1-2.172,1.055A2.869,2.869,0,0,1,173.1,13.98,5.258,5.258,0,0,1,172.2,10.711Zm2.258.161a3.355,3.355,0,0,0,.414,1.829,1.348,1.348,0,0,0,1.2.636,1.51,1.51,0,0,0,1.477-.887V9.1a1.489,1.489,0,0,0-1.461-.887Q174.454,8.211,174.454,10.872Zm6.758-.176a5.013,5.013,0,0,1,.484-2.242,3.546,3.546,0,0,1,1.395-1.523,4.069,4.069,0,0,1,2.113-.539A3.849,3.849,0,0,1,188,7.438a4.2,4.2,0,0,1,1.207,2.844l.016.578a4.418,4.418,0,0,1-1.086,3.121,4.209,4.209,0,0,1-5.832,0,4.5,4.5,0,0,1-1.09-3.187Zm2.258.16a3.16,3.16,0,0,0,.453,1.843,1.628,1.628,0,0,0,2.578.008,3.457,3.457,0,0,0,.461-2.015A3.128,3.128,0,0,0,186.5,8.86a1.5,1.5,0,0,0-1.3-.649,1.474,1.474,0,0,0-1.281.646A3.516,3.516,0,0,0,183.47,10.856Z" transform="translate(0 -8)" fill="#12263f"/>
    </g>
    <path id="Trazado_630118" data-name="Trazado 630118" d="M195.06,294.53H106.1a.731.731,0,0,0-.787.587v.013c-.024.352.337.645.786.645H195.06c1.86,0,3.369,1.18,3.369,2.636v65.517a.716.716,0,0,0,.787.615h.016a.718.718,0,0,0,.787-.616V298.411C200.02,296.268,197.8,294.53,195.06,294.53Z" transform="translate(1079.548 2072.227)" fill="#fecb2f" stroke="#fecb2f" stroke-width="1.5"/>
    <path id="Trazado_630119" data-name="Trazado 630119" d="M111.33,294.53h63.462c.306-.038.362,2.509-.8,2.309s-62.664,0-62.664,0c-2.256,0-4.086,2.19-4.086,4.89V423.267a1.059,1.059,0,0,1-.955,1.141h-.02a1.061,1.061,0,0,1-.955-1.143V301.729C105.314,297.753,108.008,294.53,111.33,294.53Z" transform="translate(885.117 2072.227)" fill="#ffd45c" stroke="#fecb2f" stroke-width="1.5"/>
    <path id="Trazado_630120" data-name="Trazado 630120" d="M243.548,340.071H106.529c-.648,0-1.178-.168-1.213-.382v-.008c-.037-.229.519-.42,1.211-.42H243.548c2.865,0,5.188-.768,5.188-1.715V294.93c0-.221.542-.4,1.213-.4h.025c.669,0,1.213.179,1.213.4v42.616C251.187,338.941,247.767,340.071,243.548,340.071Z" transform="translate(1028.381 2159.996)" fill="#ffd45c" stroke="#fecb2f" stroke-width="1.5"/>
    <path id="Trazado_630121" data-name="Trazado 630121" d="M112.953,340.071H249.973c.648,0,1.178-.168,1.213-.382v-.008c.037-.229-.519-.42-1.211-.42l-139.88-1.715c-2.865,0-4.78-27.159-4.78,0C105.314,338.941,108.735,340.071,112.953,340.071Z" transform="translate(885.117 2159.996)" fill="#fecb2f" stroke="#fecb2f" stroke-width="1.5"/>
    <g id="Enmascarar_grupo_111" data-name="Enmascarar grupo 111" transform="translate(103.058 23.475)" clip-path="url(#clip-path)">
      <g id="Grupo_883865" data-name="Grupo 883865" transform="translate(297.943 2268.571)">
        <line id="Línea_938" data-name="Línea 938" x2="11" transform="translate(3.097 118.437)" fill="none" stroke="#405366" stroke-miterlimit="10" stroke-width="2"/>
        <line id="Línea_939" data-name="Línea 939" x2="11" transform="translate(52.097 118.437)" fill="none" stroke="#405366" stroke-miterlimit="10" stroke-width="2"/>
        <g id="Grupo_883859" data-name="Grupo 883859" transform="translate(0 94.585)">
          <rect id="Rectángulo_298713" data-name="Rectángulo 298713" width="65" height="16" transform="translate(0.097 -0.148)" fill="none" stroke="#405366" stroke-miterlimit="10" stroke-width="2"/>
          <line id="Línea_940" data-name="Línea 940" x2="4" transform="translate(14.097 7.852)" fill="none" stroke="#405366" stroke-miterlimit="10" stroke-width="2"/>
          <line id="Línea_941" data-name="Línea 941" x2="4" transform="translate(21.097 7.852)" fill="none" stroke="#405366" stroke-miterlimit="10" stroke-width="2"/>
          <line id="Línea_942" data-name="Línea 942" x2="3" transform="translate(29.097 7.852)" fill="none" stroke="#405366" stroke-miterlimit="10" stroke-width="2"/>
          <line id="Línea_943" data-name="Línea 943" x2="23" transform="translate(36.097 7.852)" fill="none" stroke="#405366" stroke-miterlimit="10" stroke-width="2"/>
          <line id="Línea_944" data-name="Línea 944" x2="3" transform="translate(6.097 7.852)" fill="none" stroke="#405366" stroke-miterlimit="10" stroke-width="2"/>
        </g>
        <g id="Grupo_883860" data-name="Grupo 883860" transform="translate(0.202 79.82)">
          <path id="Trazado_630122" data-name="Trazado 630122" d="M412.616,435.4v3.8H348V424" transform="translate(-348 -424)" fill="none" stroke="#405366" stroke-miterlimit="10" stroke-width="2"/>
          <line id="Línea_945" data-name="Línea 945" x2="4" transform="translate(13.895 8.617)" fill="none" stroke="#405366" stroke-miterlimit="10" stroke-width="2"/>
          <line id="Línea_946" data-name="Línea 946" x2="4" transform="translate(20.895 8.617)" fill="none" stroke="#405366" stroke-miterlimit="10" stroke-width="2"/>
          <line id="Línea_947" data-name="Línea 947" x2="3" transform="translate(28.895 8.617)" fill="none" stroke="#405366" stroke-miterlimit="10" stroke-width="2"/>
          <line id="Línea_948" data-name="Línea 948" x2="23" transform="translate(35.895 8.617)" fill="none" stroke="#405366" stroke-miterlimit="10" stroke-width="2"/>
          <line id="Línea_949" data-name="Línea 949" x2="3" transform="translate(5.895 8.617)" fill="none" stroke="#405366" stroke-miterlimit="10" stroke-width="2"/>
        </g>
        <g id="Grupo_883861" data-name="Grupo 883861" transform="translate(0.202 64.616)">
          <path id="Trazado_630123" data-name="Trazado 630123" d="M401.213,431.2H348V416h47.512" transform="translate(-348 -416)" fill="none" stroke="#405366" stroke-miterlimit="10" stroke-width="2"/>
          <line id="Línea_950" data-name="Línea 950" x2="4" transform="translate(13.895 7.82)" fill="none" stroke="#405366" stroke-miterlimit="10" stroke-width="2"/>
          <line id="Línea_951" data-name="Línea 951" x2="3" transform="translate(5.895 7.82)" fill="none" stroke="#405366" stroke-miterlimit="10" stroke-width="2"/>
          <line id="Línea_952" data-name="Línea 952" x2="4" transform="translate(20.895 7.82)" fill="none" stroke="#405366" stroke-miterlimit="10" stroke-width="2"/>
          <line id="Línea_953" data-name="Línea 953" x2="3" transform="translate(28.895 7.82)" fill="none" stroke="#405366" stroke-miterlimit="10" stroke-width="2"/>
          <line id="Línea_954" data-name="Línea 954" x2="14" transform="translate(35.895 7.82)" fill="none" stroke="#405366" stroke-miterlimit="10" stroke-width="2"/>
        </g>
        <g id="Grupo_883862" data-name="Grupo 883862" transform="translate(0.202 49.412)">
          <path id="Trazado_630124" data-name="Trazado 630124" d="M395.512,423.2H348V408h47.512" transform="translate(-348 -408)" fill="none" stroke="#405366" stroke-miterlimit="10" stroke-width="2"/>
          <line id="Línea_955" data-name="Línea 955" x2="4" transform="translate(13.895 7.024)" fill="none" stroke="#405366" stroke-miterlimit="10" stroke-width="2"/>
          <line id="Línea_956" data-name="Línea 956" x2="3" transform="translate(5.895 7.024)" fill="none" stroke="#405366" stroke-miterlimit="10" stroke-width="2"/>
          <line id="Línea_957" data-name="Línea 957" x2="4" transform="translate(20.895 7.024)" fill="none" stroke="#405366" stroke-miterlimit="10" stroke-width="2"/>
          <line id="Línea_958" data-name="Línea 958" x2="3" transform="translate(28.895 7.024)" fill="none" stroke="#405366" stroke-miterlimit="10" stroke-width="2"/>
          <line id="Línea_959" data-name="Línea 959" x2="9" transform="translate(35.895 7.024)" fill="none" stroke="#405366" stroke-miterlimit="10" stroke-width="2"/>
        </g>
        <g id="Grupo_883863" data-name="Grupo 883863" transform="translate(0.202 19.005)">
          <path id="Trazado_630125" data-name="Trazado 630125" d="M395.512,407.2H348V392h64.616" transform="translate(-348 -392)" fill="none" stroke="#405366" stroke-miterlimit="10" stroke-width="2"/>
          <line id="Línea_960" data-name="Línea 960" x2="4" transform="translate(13.895 7.432)" fill="none" stroke="#405366" stroke-miterlimit="10" stroke-width="2"/>
          <line id="Línea_961" data-name="Línea 961" x2="3" transform="translate(5.895 7.432)" fill="none" stroke="#405366" stroke-miterlimit="10" stroke-width="2"/>
          <line id="Línea_962" data-name="Línea 962" x2="4" transform="translate(20.895 7.432)" fill="none" stroke="#405366" stroke-miterlimit="10" stroke-width="2"/>
          <line id="Línea_963" data-name="Línea 963" x2="3" transform="translate(28.895 7.432)" fill="none" stroke="#405366" stroke-miterlimit="10" stroke-width="2"/>
          <line id="Línea_964" data-name="Línea 964" x2="19" transform="translate(35.895 7.432)" fill="none" stroke="#405366" stroke-miterlimit="10" stroke-width="2"/>
        </g>
        <g id="Grupo_883864" data-name="Grupo 883864" transform="translate(0 34.339)">
          <line id="Línea_965" data-name="Línea 965" y1="16" transform="translate(0.097 0.098)" fill="none" stroke="#405366" stroke-miterlimit="10" stroke-width="2"/>
          <line id="Línea_966" data-name="Línea 966" x2="4" transform="translate(14.097 6.098)" fill="none" stroke="#405366" stroke-miterlimit="10" stroke-width="2"/>
          <line id="Línea_967" data-name="Línea 967" x2="3" transform="translate(6.097 6.098)" fill="none" stroke="#405366" stroke-miterlimit="10" stroke-width="2"/>
          <line id="Línea_968" data-name="Línea 968" x2="4" transform="translate(21.097 6.098)" fill="none" stroke="#405366" stroke-miterlimit="10" stroke-width="2"/>
          <line id="Línea_969" data-name="Línea 969" x2="3" transform="translate(29.097 6.098)" fill="none" stroke="#405366" stroke-miterlimit="10" stroke-width="2"/>
          <line id="Línea_970" data-name="Línea 970" x2="14" transform="translate(36.097 6.098)" fill="none" stroke="#405366" stroke-miterlimit="10" stroke-width="2"/>
        </g>
        <line id="Línea_971" data-name="Línea 971" x2="6" transform="translate(0.097 6.437)" fill="none" stroke="#405366" stroke-miterlimit="10" stroke-width="2"/>
        <line id="Línea_972" data-name="Línea 972" x2="6" transform="translate(59.097 6.437)" fill="none" stroke="#405366" stroke-miterlimit="10" stroke-width="2"/>
        <line id="Línea_973" data-name="Línea 973" x2="46" transform="translate(9.097 6.437)" fill="none" stroke="#405366" stroke-miterlimit="10" stroke-width="2"/>
        <path id="Trazado_630126" data-name="Trazado 630126" d="M412.616,408.607V382H348v34.208h55.114" transform="translate(-347.798 -382)" fill="none" stroke="#405366" stroke-miterlimit="10" stroke-width="2"/>
        <ellipse id="Elipse_6625" data-name="Elipse 6625" cx="36.5" cy="36" rx="36.5" ry="36" transform="translate(45.097 22.437)" fill="none" stroke="#405366" stroke-miterlimit="10" stroke-width="2"/>
        <ellipse id="Elipse_6626" data-name="Elipse 6626" cx="5" cy="5.5" rx="5" ry="5.5" transform="translate(55.097 54.437)" fill="none" stroke="#405366" stroke-miterlimit="10" stroke-width="2"/>
        <ellipse id="Elipse_6627" data-name="Elipse 6627" cx="4.5" cy="5.5" rx="4.5" ry="5.5" transform="translate(88.097 39.437)" fill="none" stroke="#405366" stroke-miterlimit="10" stroke-width="2"/>
        <ellipse id="Elipse_6628" data-name="Elipse 6628" cx="4.5" cy="5.5" rx="4.5" ry="5.5" transform="translate(99.097 54.437)" fill="none" stroke="#405366" stroke-miterlimit="10" stroke-width="2"/>
        <line id="Línea_974" data-name="Línea 974" x2="34" transform="translate(65.097 58.437)" fill="none" stroke="#405366" stroke-miterlimit="10" stroke-width="2"/>
        <path id="Trazado_630127" data-name="Trazado 630127" d="M386,420.2l7.6-15.2h7.6" transform="translate(-313.58 -361.289)" fill="none" stroke="#405366" stroke-miterlimit="10" stroke-width="2"/>
        <ellipse id="Elipse_6629" data-name="Elipse 6629" cx="4.5" cy="4" rx="4.5" ry="4" transform="translate(88.097 70.437)" fill="none" stroke="#405366" stroke-miterlimit="10" stroke-width="2"/>
        <path id="Trazado_630128" data-name="Trazado 630128" d="M386,413l7.6,15.2h7.6" transform="translate(-313.58 -354.085)" fill="none" stroke="#405366" stroke-miterlimit="10" stroke-width="2"/>
      </g>
    </g>
    <g id="Enmascarar_grupo_112" data-name="Enmascarar grupo 112" transform="translate(778.319 17.974)" clip-path="url(#clip-path-2)">
      <g id="Grupo_883867" data-name="Grupo 883867" transform="translate(289.875 2268.741)">
        <g id="Grupo_883866" data-name="Grupo 883866" transform="translate(0 0)">
          <line id="Línea_975" data-name="Línea 975" x2="10" transform="translate(1.904 104.768)" fill="none" stroke="#405366" stroke-miterlimit="10" stroke-width="2"/>
          <line id="Línea_976" data-name="Línea 976" x2="2" transform="translate(11.904 91.768)" fill="none" stroke="#405366" stroke-miterlimit="10" stroke-width="2"/>
          <line id="Línea_977" data-name="Línea 977" x2="4" transform="translate(17.904 91.768)" fill="none" stroke="#405366" stroke-miterlimit="10" stroke-width="2"/>
          <line id="Línea_978" data-name="Línea 978" x2="4" transform="translate(3.904 91.768)" fill="none" stroke="#405366" stroke-miterlimit="10" stroke-width="2"/>
          <path id="Trazado_630129" data-name="Trazado 630129" d="M629.566,258H577v13.566h45.784" transform="translate(-577 -241.043)" fill="none" stroke="#405366" stroke-miterlimit="10" stroke-width="2"/>
          <line id="Línea_979" data-name="Línea 979" x2="2" transform="translate(11.904 24.768)" fill="none" stroke="#405366" stroke-miterlimit="10" stroke-width="2"/>
          <line id="Línea_980" data-name="Línea 980" x2="4" transform="translate(17.904 24.768)" fill="none" stroke="#405366" stroke-miterlimit="10" stroke-width="2"/>
          <line id="Línea_981" data-name="Línea 981" x2="4" transform="translate(25.904 24.768)" fill="none" stroke="#405366" stroke-miterlimit="10" stroke-width="2"/>
          <line id="Línea_982" data-name="Línea 982" x2="12" transform="translate(33.904 24.768)" fill="none" stroke="#405366" stroke-miterlimit="10" stroke-width="2"/>
          <line id="Línea_983" data-name="Línea 983" x2="4" transform="translate(25.904 36.768)" fill="none" stroke="#405366" stroke-miterlimit="10" stroke-width="2"/>
          <line id="Línea_984" data-name="Línea 984" x2="18" transform="translate(33.904 36.768)" fill="none" stroke="#405366" stroke-miterlimit="10" stroke-width="2"/>
          <line id="Línea_985" data-name="Línea 985" x2="4" transform="translate(25.904 51.768)" fill="none" stroke="#405366" stroke-miterlimit="10" stroke-width="2"/>
          <line id="Línea_986" data-name="Línea 986" x2="18" transform="translate(33.904 51.768)" fill="none" stroke="#405366" stroke-miterlimit="10" stroke-width="2"/>
          <line id="Línea_987" data-name="Línea 987" x2="4" transform="translate(25.904 63.768)" fill="none" stroke="#405366" stroke-miterlimit="10" stroke-width="2"/>
          <line id="Línea_988" data-name="Línea 988" x2="23" transform="translate(33.904 63.768)" fill="none" stroke="#405366" stroke-miterlimit="10" stroke-width="2"/>
          <line id="Línea_989" data-name="Línea 989" x2="4" transform="translate(3.904 24.768)" fill="none" stroke="#405366" stroke-miterlimit="10" stroke-width="2"/>
          <path id="Trazado_630130" data-name="Trazado 630130" d="M577,303.566V290h33.914" transform="translate(-577 -218.781)" fill="none" stroke="#405366" stroke-miterlimit="10" stroke-width="2"/>
          <line id="Línea_990" data-name="Línea 990" x2="2" transform="translate(11.904 78.768)" fill="none" stroke="#405366" stroke-miterlimit="10" stroke-width="2"/>
          <line id="Línea_991" data-name="Línea 991" x2="4" transform="translate(17.904 78.768)" fill="none" stroke="#405366" stroke-miterlimit="10" stroke-width="2"/>
          <line id="Línea_992" data-name="Línea 992" x2="4" transform="translate(3.904 78.768)" fill="none" stroke="#405366" stroke-miterlimit="10" stroke-width="2"/>
          <path id="Trazado_630131" data-name="Trazado 630131" d="M577,295.566V282h55.958" transform="translate(-577 -224.346)" fill="none" stroke="#405366" stroke-miterlimit="10" stroke-width="2"/>
          <line id="Línea_993" data-name="Línea 993" x2="2" transform="translate(11.904 63.768)" fill="none" stroke="#405366" stroke-miterlimit="10" stroke-width="2"/>
          <line id="Línea_994" data-name="Línea 994" x2="4" transform="translate(3.904 63.768)" fill="none" stroke="#405366" stroke-miterlimit="10" stroke-width="2"/>
          <line id="Línea_995" data-name="Línea 995" x2="4" transform="translate(17.904 63.768)" fill="none" stroke="#405366" stroke-miterlimit="10" stroke-width="2"/>
          <path id="Trazado_630132" data-name="Trazado 630132" d="M577,287.566V274h47.479" transform="translate(-577 -229.912)" fill="none" stroke="#405366" stroke-miterlimit="10" stroke-width="2"/>
          <line id="Línea_996" data-name="Línea 996" x2="2" transform="translate(11.904 51.768)" fill="none" stroke="#405366" stroke-miterlimit="10" stroke-width="2"/>
          <line id="Línea_997" data-name="Línea 997" x2="4" transform="translate(3.904 51.768)" fill="none" stroke="#405366" stroke-miterlimit="10" stroke-width="2"/>
          <line id="Línea_998" data-name="Línea 998" x2="4" transform="translate(17.904 51.768)" fill="none" stroke="#405366" stroke-miterlimit="10" stroke-width="2"/>
          <line id="Línea_999" data-name="Línea 999" y1="12" transform="translate(-0.096 31.768)" fill="none" stroke="#405366" stroke-miterlimit="10" stroke-width="2"/>
          <line id="Línea_1000" data-name="Línea 1000" x2="2" transform="translate(11.904 36.768)" fill="none" stroke="#405366" stroke-miterlimit="10" stroke-width="2"/>
          <line id="Línea_1001" data-name="Línea 1001" x2="4" transform="translate(3.904 36.768)" fill="none" stroke="#405366" stroke-miterlimit="10" stroke-width="2"/>
          <line id="Línea_1002" data-name="Línea 1002" x2="4" transform="translate(17.904 36.768)" fill="none" stroke="#405366" stroke-miterlimit="10" stroke-width="2"/>
          <line id="Línea_1003" data-name="Línea 1003" x2="4" transform="translate(-0.096 5.768)" fill="none" stroke="#405366" stroke-miterlimit="10" stroke-width="2"/>
          <line id="Línea_1004" data-name="Línea 1004" x2="4" transform="translate(53.904 5.768)" fill="none" stroke="#405366" stroke-miterlimit="10" stroke-width="2"/>
          <line id="Línea_1005" data-name="Línea 1005" x2="42" transform="translate(7.904 5.768)" fill="none" stroke="#405366" stroke-miterlimit="10" stroke-width="2"/>
          <path id="Trazado_630133" data-name="Trazado 630133" d="M634.654,263.261V248H577v30.522h45.784" transform="translate(-577 -248)" fill="none" stroke="#405366" stroke-miterlimit="10" stroke-width="2"/>
          <path id="Trazado_630134" data-name="Trazado 630134" d="M604.131,298H577v13.566h27.131" transform="translate(-577 -213.215)" fill="none" stroke="#405366" stroke-miterlimit="10" stroke-width="2"/>
        </g>
        <path id="Trazado_630135" data-name="Trazado 630135" d="M640.305,273.906h0a6.8,6.8,0,0,1-6.783-6.783h0c0,10.174-23.74,3.391-30.522,6.783,0-23.74,30.522-16.957,32.218-11.87h0a5.087,5.087,0,0,1,5.087,5.087Z" transform="translate(-558.912 -241.688)" fill="none" stroke="#405366" stroke-miterlimit="10" stroke-width="2"/>
        <path id="Trazado_630136" data-name="Trazado 630136" d="M650.827,331.871V303.032a6.781,6.781,0,0,0-4.868-6.506L622,289.478V281" transform="translate(-545.694 -225.042)" fill="none" stroke="#405366" stroke-miterlimit="10" stroke-width="2"/>
        <path id="Trazado_630137" data-name="Trazado 630137" d="M621.827,281v8.478l-23.958,7.047A6.782,6.782,0,0,0,593,303.032v28.839" transform="translate(-565.869 -225.042)" fill="none" stroke="#405366" stroke-miterlimit="10" stroke-width="2"/>
        <line id="Línea_1006" data-name="Línea 1006" y2="21" transform="translate(40.904 86.768)" fill="none" stroke="#405366" stroke-miterlimit="10" stroke-width="2"/>
        <line id="Línea_1007" data-name="Línea 1007" y2="21" transform="translate(91.904 86.768)" fill="none" stroke="#405366" stroke-miterlimit="10" stroke-width="2"/>
        <path id="Trazado_630138" data-name="Trazado 630138" d="M638.914,267.7v5.087h0a3.39,3.39,0,0,1,3.391,3.391h0a9.5,9.5,0,0,1-2.147,6.016l-1.245,1.521v4.333l-10.174,6.783H618.565l-10.174-6.783v-4.333l-1.245-1.521A9.5,9.5,0,0,1,605,276.174h0a3.39,3.39,0,0,1,3.391-3.391h0V266" transform="translate(-557.521 -235.478)" fill="none" stroke="#405366" stroke-miterlimit="10" stroke-width="2"/>
        <path id="Trazado_630139" data-name="Trazado 630139" d="M671,328.392V299.554a6.781,6.781,0,0,0-4.868-6.506L642.175,286s-.019.051-.049.124a10.171,10.171,0,0,1-20.25,0c-.031-.073-.049-.124-.049-.124l-23.958,7.047A6.782,6.782,0,0,0,593,299.554v28.839" transform="translate(-565.869 -221.564)" fill="none" stroke="#405366" stroke-miterlimit="10" stroke-width="2"/>
        <line id="Línea_1008" data-name="Línea 1008" y2="41" transform="translate(56.904 66.768)" fill="none" stroke="#405366" stroke-miterlimit="10" stroke-width="2"/>
        <line id="Línea_1009" data-name="Línea 1009" y2="41" transform="translate(76.904 66.768)" fill="none" stroke="#405366" stroke-miterlimit="10" stroke-width="2"/>
        <rect id="Rectángulo_298715" data-name="Rectángulo 298715" width="8" height="7" transform="translate(54.904 36.768)" fill="none" stroke="#405366" stroke-miterlimit="10" stroke-width="2"/>
        <rect id="Rectángulo_298716" data-name="Rectángulo 298716" width="9" height="7" transform="translate(69.904 36.768)" fill="none" stroke="#405366" stroke-miterlimit="10" stroke-width="2"/>
        <line id="Línea_1010" data-name="Línea 1010" x2="7" transform="translate(62.904 40.768)" fill="none" stroke="#405366" stroke-miterlimit="10" stroke-width="2"/>
      </g>
    </g>
  </g>
</svg>
