<svg xmlns="http://www.w3.org/2000/svg" xmlns:xlink="http://www.w3.org/1999/xlink" width="960.637" height="232.817" viewBox="0 0 960.637 232.817">
  <defs>
    <clipPath id="clip-path">
      <rect id="Rectángulo_298704" data-name="Rectángulo 298704" width="132" height="144" transform="translate(284.04 2251.008)" fill="#fff" stroke="#707070" stroke-width="1"/>
    </clipPath>
    <clipPath id="clip-path-2">
      <rect id="Rectángulo_298707" data-name="Rectángulo 298707" width="120" height="128" transform="translate(281.779 2251.509)" fill="#fff" stroke="#707070" stroke-width="1"/>
    </clipPath>
  </defs>
  <g id="Grupo_894051" data-name="Grupo 894051" transform="translate(1349.984 9727.236)">
    <g id="Grupo_894050" data-name="Grupo 894050">
      <g id="Grupo_894049" data-name="Grupo 894049">
        <g id="Grupo_883718" data-name="Grupo 883718" transform="translate(-1329.234 -9568.564)">
          <path id="Trazado_630703" data-name="Trazado 630703" d="M12.685,17H11.216l.914-5.258H6.576L5.662,17H4.193L6.169,5.625H7.638l-.852,4.891h5.547l.852-4.891h1.477ZM19.81,8.391a3.047,3.047,0,0,1,1.82.578,3.285,3.285,0,0,1,1.121,1.551A4.8,4.8,0,0,1,23,12.68l-.016.172a5.685,5.685,0,0,1-.734,2.23,4.309,4.309,0,0,1-1.516,1.551,3.7,3.7,0,0,1-2.039.523,3.052,3.052,0,0,1-1.816-.578,3.21,3.21,0,0,1-1.113-1.531,4.931,4.931,0,0,1-.25-2.133,5.76,5.76,0,0,1,.711-2.359,4.409,4.409,0,0,1,1.527-1.621A3.652,3.652,0,0,1,19.81,8.391Zm-2.875,4.531a4.8,4.8,0,0,0,0,1.023,2.507,2.507,0,0,0,.551,1.469,1.653,1.653,0,0,0,1.262.57,2.253,2.253,0,0,0,1.3-.348,2.919,2.919,0,0,0,1-1.121,4.721,4.721,0,0,0,.523-1.664,7.494,7.494,0,0,0,.023-1.211,2.6,2.6,0,0,0-.57-1.492,1.69,1.69,0,0,0-1.266-.578,2.3,2.3,0,0,0-1.859.859,4.245,4.245,0,0,0-.945,2.313Zm12.344,1.789q.117-.875-.961-1.234l-1.469-.43q-1.859-.641-1.8-2.125a2.341,2.341,0,0,1,1.02-1.832,3.631,3.631,0,0,1,2.27-.7,3.027,3.027,0,0,1,2.082.746,2.363,2.363,0,0,1,.77,1.9l-1.406-.008a1.319,1.319,0,0,0-.4-1.031,1.576,1.576,0,0,0-1.1-.414,2.059,2.059,0,0,0-1.266.359,1.316,1.316,0,0,0-.57.922q-.1.734.9,1.07l.711.2a4.577,4.577,0,0,1,2.063.977,1.865,1.865,0,0,1,.563,1.492,2.37,2.37,0,0,1-.516,1.375,2.948,2.948,0,0,1-1.25.895,4.18,4.18,0,0,1-1.664.285,3.3,3.3,0,0,1-2.219-.785,2.427,2.427,0,0,1-.844-1.98l1.414.008a1.5,1.5,0,0,0,.453,1.141,1.732,1.732,0,0,0,1.242.43,2.436,2.436,0,0,0,1.336-.324A1.247,1.247,0,0,0,29.279,14.711ZM35.857,6.5,35.5,8.547h1.539l-.2,1.117H35.31l-.883,5.258a1.833,1.833,0,0,0-.008.375.6.6,0,0,0,.664.609,4.05,4.05,0,0,0,.688-.078l-.109,1.18a3.847,3.847,0,0,1-1.031.141,1.476,1.476,0,0,1-1.266-.621,2.4,2.4,0,0,1-.328-1.629L33.9,9.664H32.4l.2-1.117h1.492L34.451,6.5ZM38.8,17H37.4l1.469-8.453h1.406ZM39.966,5.461a.774.774,0,0,1,.6.215.8.8,0,0,1,.238.605.834.834,0,0,1-.836.852.779.779,0,0,1-.6-.211.764.764,0,0,1-.227-.594.886.886,0,0,1,.234-.609A.826.826,0,0,1,39.966,5.461Zm3.953,3.078-.2,1.07A3.333,3.333,0,0,1,46.31,8.391a2.1,2.1,0,0,1,1.766.828,3.217,3.217,0,0,1,.422,2.242L47.576,17H46.162l.93-5.557a2.962,2.962,0,0,0,.008-.71A1.168,1.168,0,0,0,45.81,9.617a2.661,2.661,0,0,0-2.234,1.358L42.529,17H41.115l1.469-8.453Zm6.25,4.219a6.889,6.889,0,0,1,.746-2.4,3.9,3.9,0,0,1,1.359-1.508,3.151,3.151,0,0,1,1.754-.465,2.6,2.6,0,0,1,2.219,1.109l.281-.945h1.3L56.419,16.82a4.113,4.113,0,0,1-1.312,2.59,3.7,3.7,0,0,1-2.68.926,3.8,3.8,0,0,1-1.645-.406,3.127,3.127,0,0,1-1.238-1.07l.8-.867a2.536,2.536,0,0,0,3.73.6,2.9,2.9,0,0,0,.926-1.687l.156-.75a3.2,3.2,0,0,1-2.414,1,2.486,2.486,0,0,1-1.371-.426,2.589,2.589,0,0,1-.9-1.164,4.759,4.759,0,0,1-.352-1.7A8.733,8.733,0,0,1,50.169,12.758Zm1.367.8a2.974,2.974,0,0,0,.387,1.728,1.461,1.461,0,0,0,1.238.644,2.561,2.561,0,0,0,2.18-1.241l.664-3.878a1.776,1.776,0,0,0-1.7-1.2,2.194,2.194,0,0,0-1.887.936,4.878,4.878,0,0,0-.871,2.614Zm15.172,2.419a2.082,2.082,0,0,0,1.352-.469,1.649,1.649,0,0,0,.641-1.172h1.367a2.621,2.621,0,0,1-.5,1.383,3.293,3.293,0,0,1-1.23,1.047,3.55,3.55,0,0,1-1.629.391A3.482,3.482,0,0,1,63.962,16a4.59,4.59,0,0,1-1.02-3.152v-.242a5.089,5.089,0,0,1,.453-2.2,3.451,3.451,0,0,1,1.3-1.492,3.7,3.7,0,0,1,2-.531,3.39,3.39,0,0,1,2.363.852,3.043,3.043,0,0,1,1,2.211H68.7a1.992,1.992,0,0,0-.621-1.348A1.932,1.932,0,0,0,66.7,9.578a2.023,2.023,0,0,0-1.707.793,3.724,3.724,0,0,0-.605,2.293v.273a3.65,3.65,0,0,0,.6,2.25A2.033,2.033,0,0,0,66.708,15.977Zm4.6-3.281a4.993,4.993,0,0,1,.488-2.234A3.643,3.643,0,0,1,73.158,8.93a3.7,3.7,0,0,1,1.988-.539,3.565,3.565,0,0,1,2.793,1.2,4.6,4.6,0,0,1,1.066,3.18v.1a5.036,5.036,0,0,1-.473,2.215,3.589,3.589,0,0,1-1.352,1.527,3.743,3.743,0,0,1-2.02.547,3.556,3.556,0,0,1-2.785-1.2A4.575,4.575,0,0,1,71.31,12.8Zm1.453.172a3.616,3.616,0,0,0,.652,2.258,2.211,2.211,0,0,0,3.5-.012A3.955,3.955,0,0,0,77.56,12.7a3.61,3.61,0,0,0-.66-2.254,2.1,2.1,0,0,0-1.754-.863,2.075,2.075,0,0,0-1.727.852A3.925,3.925,0,0,0,72.763,12.867Zm9.414-4.32.039.938a3.122,3.122,0,0,1,2.508-1.094A2.417,2.417,0,0,1,87.138,9.75a3.2,3.2,0,0,1,1.1-.984,3.242,3.242,0,0,1,1.6-.375q2.781,0,2.828,2.945V17H91.216V11.422a1.941,1.941,0,0,0-.414-1.355,1.823,1.823,0,0,0-1.391-.449,1.916,1.916,0,0,0-1.336.48,1.949,1.949,0,0,0-.617,1.293V17H86.005V11.461a1.613,1.613,0,0,0-1.8-1.844,1.934,1.934,0,0,0-1.945,1.211V17H80.81V8.547Zm19.8,4.32a5.062,5.062,0,0,1-.883,3.109,2.829,2.829,0,0,1-2.391,1.18,3.1,3.1,0,0,1-2.422-.977v4.07H94.841V8.547h1.32l.07.938a2.977,2.977,0,0,1,2.453-1.094,2.882,2.882,0,0,1,2.41,1.148,5.117,5.117,0,0,1,.887,3.2Zm-1.445-.164a3.735,3.735,0,0,0-.609-2.258,1.963,1.963,0,0,0-1.672-.828,2.125,2.125,0,0,0-1.969,1.164V14.82a2.129,2.129,0,0,0,1.984,1.156,1.954,1.954,0,0,0,1.652-.824A4.077,4.077,0,0,0,100.537,12.7Zm8.5,4.3a3.036,3.036,0,0,1-.2-.891,3.225,3.225,0,0,1-2.406,1.047,2.984,2.984,0,0,1-2.051-.707,2.288,2.288,0,0,1-.8-1.793,2.39,2.39,0,0,1,1-2.051,4.733,4.733,0,0,1,2.824-.73h1.406v-.664A1.623,1.623,0,0,0,108.357,10a1.821,1.821,0,0,0-1.336-.449,2.108,2.108,0,0,0-1.3.391,1.151,1.151,0,0,0-.523.945h-1.453a2,2,0,0,1,.449-1.223,3.066,3.066,0,0,1,1.219-.934,4.1,4.1,0,0,1,1.691-.344,3.342,3.342,0,0,1,2.289.73,2.635,2.635,0,0,1,.859,2.012v3.891a4.757,4.757,0,0,0,.3,1.852V17Zm-2.4-1.1a2.54,2.54,0,0,0,1.289-.352,2.127,2.127,0,0,0,.883-.914V12.9h-1.133q-2.656,0-2.656,1.555a1.316,1.316,0,0,0,.453,1.063A1.742,1.742,0,0,0,106.638,15.9Zm9.969-6.055a4.331,4.331,0,0,0-.711-.055A1.9,1.9,0,0,0,113.966,11v6h-1.445V8.547h1.406l.023.977a2.251,2.251,0,0,1,2.016-1.133,1.477,1.477,0,0,1,.641.109Zm3.68-3.344V8.547h1.578V9.664h-1.578v5.249a1.173,1.173,0,0,0,.211.763.888.888,0,0,0,.719.254,3.5,3.5,0,0,0,.688-.094V17a4.215,4.215,0,0,1-1.109.155,1.8,1.8,0,0,1-1.461-.586,2.517,2.517,0,0,1-.492-1.664V9.664H117.3V8.547h1.539V6.5ZM125.122,17h-1.445V8.547h1.445ZM123.56,6.3a.863.863,0,0,1,.215-.594.807.807,0,0,1,.637-.242.819.819,0,0,1,.641.242.854.854,0,0,1,.219.594.826.826,0,0,1-.219.586.834.834,0,0,1-.641.234.821.821,0,0,1-.637-.234A.834.834,0,0,1,123.56,6.3Zm3.523,6.4a4.952,4.952,0,0,1,.922-3.129,3.137,3.137,0,0,1,4.766-.168V5h1.445V17h-1.328l-.07-.906a2.943,2.943,0,0,1-2.414,1.063,2.887,2.887,0,0,1-2.395-1.2,5.008,5.008,0,0,1-.926-3.141Zm1.445.164a3.749,3.749,0,0,0,.594,2.25,1.919,1.919,0,0,0,1.641.813,2.108,2.108,0,0,0,2.008-1.234V10.813a2.125,2.125,0,0,0-1.992-1.2,1.929,1.929,0,0,0-1.656.82A4.128,4.128,0,0,0,128.529,12.867Zm7.547-.172a4.993,4.993,0,0,1,.488-2.234,3.642,3.642,0,0,1,1.359-1.531,3.7,3.7,0,0,1,1.988-.539,3.565,3.565,0,0,1,2.793,1.2,4.6,4.6,0,0,1,1.066,3.18v.1a5.036,5.036,0,0,1-.473,2.215,3.589,3.589,0,0,1-1.352,1.527,3.743,3.743,0,0,1-2.02.547,3.556,3.556,0,0,1-2.785-1.2,4.575,4.575,0,0,1-1.066-3.164Zm1.453.172a3.616,3.616,0,0,0,.652,2.258,2.211,2.211,0,0,0,3.5-.012,3.954,3.954,0,0,0,.648-2.418,3.61,3.61,0,0,0-.66-2.254,2.1,2.1,0,0,0-1.754-.863,2.075,2.075,0,0,0-1.727.852A3.925,3.925,0,0,0,137.529,12.867Zm11.633-.172a4.993,4.993,0,0,1,.488-2.234,3.642,3.642,0,0,1,1.359-1.531A3.7,3.7,0,0,1,153,8.391a3.565,3.565,0,0,1,2.793,1.2,4.6,4.6,0,0,1,1.066,3.18v.1a5.036,5.036,0,0,1-.473,2.215,3.589,3.589,0,0,1-1.352,1.527,3.743,3.743,0,0,1-2.02.547,3.556,3.556,0,0,1-2.785-1.2,4.575,4.575,0,0,1-1.066-3.164Zm1.453.172a3.616,3.616,0,0,0,.652,2.258,2.211,2.211,0,0,0,3.5-.012,3.954,3.954,0,0,0,.648-2.418,3.61,3.61,0,0,0-.66-2.254A2.1,2.1,0,0,0,153,9.578a2.075,2.075,0,0,0-1.727.852A3.925,3.925,0,0,0,150.615,12.867ZM167.849,17a3.036,3.036,0,0,1-.2-.891,3.225,3.225,0,0,1-2.406,1.047,2.984,2.984,0,0,1-2.051-.707,2.287,2.287,0,0,1-.8-1.793,2.39,2.39,0,0,1,1-2.051,4.733,4.733,0,0,1,2.824-.73h1.406v-.664A1.623,1.623,0,0,0,167.169,10a1.821,1.821,0,0,0-1.336-.449,2.107,2.107,0,0,0-1.3.391,1.151,1.151,0,0,0-.523.945H162.56a2,2,0,0,1,.449-1.223,3.066,3.066,0,0,1,1.219-.934,4.1,4.1,0,0,1,1.691-.344,3.342,3.342,0,0,1,2.289.73,2.635,2.635,0,0,1,.859,2.012v3.891a4.757,4.757,0,0,0,.3,1.852V17Zm-2.4-1.1a2.54,2.54,0,0,0,1.289-.352,2.127,2.127,0,0,0,.883-.914V12.9H166.49q-2.656,0-2.656,1.555a1.316,1.316,0,0,0,.453,1.063A1.742,1.742,0,0,0,165.451,15.9ZM172.9,17h-1.445V5H172.9Zm1.93-4.3a4.993,4.993,0,0,1,.488-2.234,3.642,3.642,0,0,1,1.359-1.531,3.7,3.7,0,0,1,1.988-.539,3.565,3.565,0,0,1,2.793,1.2,4.6,4.6,0,0,1,1.066,3.18v.1a5.036,5.036,0,0,1-.473,2.215,3.589,3.589,0,0,1-1.352,1.527,3.743,3.743,0,0,1-2.02.547,3.556,3.556,0,0,1-2.785-1.2,4.575,4.575,0,0,1-1.066-3.164Zm1.453.172a3.616,3.616,0,0,0,.652,2.258,2.211,2.211,0,0,0,3.5-.012,3.954,3.954,0,0,0,.648-2.418,3.61,3.61,0,0,0-.66-2.254,2.1,2.1,0,0,0-1.754-.863,2.075,2.075,0,0,0-1.727.852A3.925,3.925,0,0,0,176.287,12.867Zm9.547-4.32v9.43q0,2.438-2.211,2.438a2.7,2.7,0,0,1-.883-.14V19.125a2.794,2.794,0,0,0,.656.063.982.982,0,0,0,.738-.262,1.3,1.3,0,0,0,.254-.911V8.547ZM184.24,6.3a.867.867,0,0,1,.215-.59.79.79,0,0,1,.629-.246.819.819,0,0,1,.641.242.854.854,0,0,1,.219.594.826.826,0,0,1-.219.586.834.834,0,0,1-.641.234.808.808,0,0,1-.633-.234A.843.843,0,0,1,184.24,6.3ZM193.38,17a3.036,3.036,0,0,1-.2-.891,3.225,3.225,0,0,1-2.406,1.047,2.984,2.984,0,0,1-2.051-.707,2.287,2.287,0,0,1-.8-1.793,2.39,2.39,0,0,1,1-2.051,4.733,4.733,0,0,1,2.824-.73h1.406v-.664A1.623,1.623,0,0,0,192.7,10a1.821,1.821,0,0,0-1.336-.449,2.107,2.107,0,0,0-1.3.391,1.151,1.151,0,0,0-.523.945h-1.453a2,2,0,0,1,.449-1.223,3.066,3.066,0,0,1,1.219-.934,4.1,4.1,0,0,1,1.691-.344,3.342,3.342,0,0,1,2.289.73,2.635,2.635,0,0,1,.859,2.012v3.891a4.757,4.757,0,0,0,.3,1.852V17Zm-2.4-1.1a2.54,2.54,0,0,0,1.289-.352,2.127,2.127,0,0,0,.883-.914V12.9h-1.133q-2.656,0-2.656,1.555a1.316,1.316,0,0,0,.453,1.063A1.742,1.742,0,0,0,190.982,15.9Zm7.242-7.352.039.938a3.122,3.122,0,0,1,2.508-1.094,2.417,2.417,0,0,1,2.414,1.359,3.2,3.2,0,0,1,1.1-.984,3.242,3.242,0,0,1,1.6-.375q2.781,0,2.828,2.945V17h-1.445V11.422a1.941,1.941,0,0,0-.414-1.355,1.823,1.823,0,0,0-1.391-.449,1.917,1.917,0,0,0-1.336.48,1.949,1.949,0,0,0-.617,1.293V17h-1.453V11.461a1.613,1.613,0,0,0-1.8-1.844,1.934,1.934,0,0,0-1.945,1.211V17h-1.445V8.547ZM212.458,17h-1.445V8.547h1.445ZM210.9,6.3a.863.863,0,0,1,.215-.594.807.807,0,0,1,.637-.242.819.819,0,0,1,.641.242.854.854,0,0,1,.219.594.826.826,0,0,1-.219.586.834.834,0,0,1-.641.234.821.821,0,0,1-.637-.234A.834.834,0,0,1,210.9,6.3Zm7.383,10.852a3.693,3.693,0,0,1-2.8-1.129,4.19,4.19,0,0,1-1.078-3.02v-.266a5.073,5.073,0,0,1,.48-2.246,3.748,3.748,0,0,1,1.344-1.547,3.378,3.378,0,0,1,1.871-.559,3.166,3.166,0,0,1,2.563,1.086,4.7,4.7,0,0,1,.914,3.109v.6h-5.727a3,3,0,0,0,.73,2.02,2.3,2.3,0,0,0,1.777.77,2.517,2.517,0,0,0,1.3-.312,3.258,3.258,0,0,0,.93-.828l.883.688A3.55,3.55,0,0,1,218.279,17.156Zm-.18-7.578a1.928,1.928,0,0,0-1.469.637A3.1,3.1,0,0,0,215.9,12h4.234v-.109a2.753,2.753,0,0,0-.594-1.707A1.815,1.815,0,0,0,218.1,9.578Zm6.516-1.031.047,1.063a3.08,3.08,0,0,1,2.531-1.219q2.68,0,2.7,3.023V17h-1.445V11.406a1.946,1.946,0,0,0-.418-1.352,1.675,1.675,0,0,0-1.277-.437,2.086,2.086,0,0,0-1.234.375,2.546,2.546,0,0,0-.828.984V17h-1.445V8.547ZM234.037,6.5V8.547h1.578V9.664h-1.578v5.249a1.173,1.173,0,0,0,.211.763.888.888,0,0,0,.719.254,3.5,3.5,0,0,0,.688-.094V17a4.215,4.215,0,0,1-1.109.155,1.8,1.8,0,0,1-1.461-.586,2.517,2.517,0,0,1-.492-1.664V9.664h-1.539V8.547h1.539V6.5Zm2.727,6.2a4.993,4.993,0,0,1,.488-2.234,3.642,3.642,0,0,1,1.359-1.531,3.7,3.7,0,0,1,1.988-.539,3.565,3.565,0,0,1,2.793,1.2,4.6,4.6,0,0,1,1.066,3.18v.1a5.036,5.036,0,0,1-.473,2.215,3.589,3.589,0,0,1-1.352,1.527,3.743,3.743,0,0,1-2.02.547,3.556,3.556,0,0,1-2.785-1.2,4.575,4.575,0,0,1-1.066-3.164Zm1.453.172a3.616,3.616,0,0,0,.652,2.258,2.211,2.211,0,0,0,3.5-.012,3.954,3.954,0,0,0,.648-2.418,3.61,3.61,0,0,0-.66-2.254,2.1,2.1,0,0,0-1.754-.863,2.075,2.075,0,0,0-1.727.852A3.925,3.925,0,0,0,238.216,12.867ZM75.181,39.008l1.625-6.461h1.445L75.79,41H74.619l-2.055-6.406-2,6.406H69.392l-2.453-8.453h1.438l1.664,6.328,1.969-6.328h1.164Zm8.047,2.148a3.693,3.693,0,0,1-2.8-1.129,4.19,4.19,0,0,1-1.078-3.02v-.266a5.073,5.073,0,0,1,.48-2.246,3.748,3.748,0,0,1,1.344-1.547,3.378,3.378,0,0,1,1.871-.559,3.166,3.166,0,0,1,2.563,1.086,4.7,4.7,0,0,1,.914,3.109v.6H80.8a3,3,0,0,0,.73,2.02,2.3,2.3,0,0,0,1.777.77,2.517,2.517,0,0,0,1.3-.312,3.259,3.259,0,0,0,.93-.828l.883.688A3.55,3.55,0,0,1,83.228,41.156Zm-.18-7.578a1.928,1.928,0,0,0-1.469.637A3.1,3.1,0,0,0,80.845,36h4.234v-.109a2.753,2.753,0,0,0-.594-1.707A1.815,1.815,0,0,0,83.048,33.578Zm12.3,3.289a5.026,5.026,0,0,1-.891,3.113,2.846,2.846,0,0,1-2.391,1.176A2.947,2.947,0,0,1,89.6,40.023l-.07.977H88.2V29h1.445v4.477a2.93,2.93,0,0,1,2.414-1.086,2.863,2.863,0,0,1,2.418,1.164,5.177,5.177,0,0,1,.879,3.188ZM93.908,36.7a3.906,3.906,0,0,0-.57-2.281,1.888,1.888,0,0,0-1.641-.8,2.122,2.122,0,0,0-2.055,1.328V38.6a2.181,2.181,0,0,0,2.07,1.328,1.878,1.878,0,0,0,1.617-.8A4.153,4.153,0,0,0,93.908,36.7Zm10.617,3.273a2.082,2.082,0,0,0,1.352-.469,1.649,1.649,0,0,0,.641-1.172h1.367a2.621,2.621,0,0,1-.5,1.383,3.293,3.293,0,0,1-1.23,1.047,3.55,3.55,0,0,1-1.629.391A3.482,3.482,0,0,1,101.779,40a4.59,4.59,0,0,1-1.02-3.152v-.242a5.089,5.089,0,0,1,.453-2.2,3.451,3.451,0,0,1,1.3-1.492,3.7,3.7,0,0,1,2-.531,3.39,3.39,0,0,1,2.363.852,3.043,3.043,0,0,1,1,2.211h-1.367a1.992,1.992,0,0,0-.621-1.348,1.932,1.932,0,0,0-1.379-.527,2.023,2.023,0,0,0-1.707.793,3.724,3.724,0,0,0-.605,2.293v.273a3.65,3.65,0,0,0,.6,2.25A2.033,2.033,0,0,0,104.525,39.977Zm4.6-3.281a4.993,4.993,0,0,1,.488-2.234,3.643,3.643,0,0,1,1.359-1.531,3.7,3.7,0,0,1,1.988-.539,3.565,3.565,0,0,1,2.793,1.2,4.6,4.6,0,0,1,1.066,3.18v.1a5.036,5.036,0,0,1-.473,2.215A3.589,3.589,0,0,1,115,40.609a3.743,3.743,0,0,1-2.02.547,3.556,3.556,0,0,1-2.785-1.2,4.575,4.575,0,0,1-1.066-3.164Zm1.453.172a3.616,3.616,0,0,0,.652,2.258,2.211,2.211,0,0,0,3.5-.012,3.955,3.955,0,0,0,.648-2.418,3.61,3.61,0,0,0-.66-2.254,2.1,2.1,0,0,0-1.754-.863,2.075,2.075,0,0,0-1.727.852A3.925,3.925,0,0,0,110.579,36.867Zm9.414-4.32.039.938a3.122,3.122,0,0,1,2.508-1.094,2.417,2.417,0,0,1,2.414,1.359,3.2,3.2,0,0,1,1.1-.984,3.242,3.242,0,0,1,1.6-.375q2.781,0,2.828,2.945V41h-1.445V35.422a1.941,1.941,0,0,0-.414-1.355,1.823,1.823,0,0,0-1.391-.449,1.916,1.916,0,0,0-1.336.48,1.949,1.949,0,0,0-.617,1.293V41h-1.453V35.461a1.613,1.613,0,0,0-1.8-1.844,1.934,1.934,0,0,0-1.945,1.211V41h-1.445V32.547Zm19.8,4.32a5.062,5.062,0,0,1-.883,3.109,2.829,2.829,0,0,1-2.391,1.18,3.1,3.1,0,0,1-2.422-.977v4.07h-1.445v-11.7h1.32l.07.938a2.977,2.977,0,0,1,2.453-1.094,2.882,2.882,0,0,1,2.41,1.148,5.117,5.117,0,0,1,.887,3.2Zm-1.445-.164a3.735,3.735,0,0,0-.609-2.258,1.963,1.963,0,0,0-1.672-.828,2.125,2.125,0,0,0-1.969,1.164V38.82a2.129,2.129,0,0,0,1.984,1.156,1.954,1.954,0,0,0,1.652-.824A4.077,4.077,0,0,0,138.353,36.7Zm8.5,4.3a3.036,3.036,0,0,1-.2-.891,3.225,3.225,0,0,1-2.406,1.047,2.984,2.984,0,0,1-2.051-.707,2.287,2.287,0,0,1-.8-1.793,2.39,2.39,0,0,1,1-2.051,4.733,4.733,0,0,1,2.824-.73h1.406v-.664A1.623,1.623,0,0,0,146.173,34a1.821,1.821,0,0,0-1.336-.449,2.107,2.107,0,0,0-1.3.391,1.151,1.151,0,0,0-.523.945h-1.453a2,2,0,0,1,.449-1.223,3.066,3.066,0,0,1,1.219-.934,4.1,4.1,0,0,1,1.691-.344,3.342,3.342,0,0,1,2.289.73,2.635,2.635,0,0,1,.859,2.012v3.891a4.757,4.757,0,0,0,.3,1.852V41Zm-2.4-1.1a2.54,2.54,0,0,0,1.289-.352,2.127,2.127,0,0,0,.883-.914V36.9h-1.133q-2.656,0-2.656,1.555a1.316,1.316,0,0,0,.453,1.063A1.742,1.742,0,0,0,144.454,39.9Zm9.969-6.055a4.331,4.331,0,0,0-.711-.055A1.9,1.9,0,0,0,151.783,35v6h-1.445V32.547h1.406l.023.977a2.251,2.251,0,0,1,2.016-1.133,1.477,1.477,0,0,1,.641.109ZM158.1,30.5v2.047h1.578v1.117H158.1v5.249a1.173,1.173,0,0,0,.211.763.888.888,0,0,0,.719.254,3.5,3.5,0,0,0,.688-.094V41a4.215,4.215,0,0,1-1.109.155,1.8,1.8,0,0,1-1.461-.586,2.517,2.517,0,0,1-.492-1.664V33.664h-1.539V32.547h1.539V30.5ZM162.939,41h-1.445V32.547h1.445Zm-1.562-10.7a.863.863,0,0,1,.215-.594.807.807,0,0,1,.637-.242.819.819,0,0,1,.641.242.854.854,0,0,1,.219.594.826.826,0,0,1-.219.586.834.834,0,0,1-.641.234.821.821,0,0,1-.637-.234A.834.834,0,0,1,161.376,30.3Zm3.523,6.4a4.952,4.952,0,0,1,.922-3.129,3.137,3.137,0,0,1,4.766-.168V29h1.445V41H170.7l-.07-.906a2.943,2.943,0,0,1-2.414,1.063,2.887,2.887,0,0,1-2.395-1.2,5.008,5.008,0,0,1-.926-3.141Zm1.445.164a3.749,3.749,0,0,0,.594,2.25,1.919,1.919,0,0,0,1.641.813,2.108,2.108,0,0,0,2.008-1.234V34.813a2.125,2.125,0,0,0-1.992-1.2,1.929,1.929,0,0,0-1.656.82A4.128,4.128,0,0,0,166.345,36.867Zm7.547-.172a4.993,4.993,0,0,1,.488-2.234,3.642,3.642,0,0,1,1.359-1.531,3.7,3.7,0,0,1,1.988-.539,3.565,3.565,0,0,1,2.793,1.2,4.6,4.6,0,0,1,1.066,3.18v.1a5.036,5.036,0,0,1-.473,2.215,3.589,3.589,0,0,1-1.352,1.527,3.743,3.743,0,0,1-2.02.547,3.556,3.556,0,0,1-2.785-1.2,4.575,4.575,0,0,1-1.066-3.164Zm1.453.172A3.616,3.616,0,0,0,176,39.125a2.211,2.211,0,0,0,3.5-.012,3.954,3.954,0,0,0,.648-2.418,3.61,3.61,0,0,0-.66-2.254,2.1,2.1,0,0,0-1.754-.863A2.075,2.075,0,0,0,176,34.43,3.925,3.925,0,0,0,175.345,36.867Z" transform="translate(0 -8)" fill="#12263f"/>
        </g>
        <path id="Trazado_630037" data-name="Trazado 630037" d="M211.008,294.53h-72.3c-1.324-.187-1.324,1.537.286,1.245h72.014c2.191,0,3.967,1.18,3.967,2.636v65.517c0,.34.414.616.927.615h.019c.512,0,.927-.275.927-.616V298.411C216.848,296.268,214.233,294.53,211.008,294.53Z" transform="translate(-1276.946 -9926.01)" fill="#fecb2f" stroke="#fecb2f" stroke-width="1.5"/>
        <path id="Trazado_630038" data-name="Trazado 630038" d="M111.612,294.53h66.441c.32-.038.379,2.509-.836,2.309s-65.605,0-65.605,0c-2.362,0-4.278,2.19-4.278,4.89V423.267a1.075,1.075,0,0,1-1,1.141h-.021a1.078,1.078,0,0,1-1-1.143V301.729C105.314,297.753,108.134,294.53,111.612,294.53Z" transform="translate(-1454.549 -9926.01)" fill="#ffd45c" stroke="#fecb2f" stroke-width="1.5"/>
        <path id="Trazado_630039" data-name="Trazado 630039" d="M243.548,340.071H106.529c-.648,0-1.178-.168-1.213-.382v-.008c-.037-.229.519-.42,1.211-.42H243.548c2.865,0,5.188-.768,5.188-1.715V294.93c0-.221.542-.4,1.213-.4h.025c.669,0,1.213.179,1.213.4v42.616C251.187,338.941,247.767,340.071,243.548,340.071Z" transform="translate(-1311.285 -9838.241)" fill="#ffd45c" stroke="#fecb2f" stroke-width="1.5"/>
        <path id="Trazado_630040" data-name="Trazado 630040" d="M112.953,340.071H249.973c.648,0,1.178-.168,1.213-.382v-.008c.037-.229-.519-.42-1.211-.42l-139.88-1.715c-2.865,0-4.78-27.159-4.78,0C105.314,338.941,108.735,340.071,112.953,340.071Z" transform="translate(-1454.549 -9838.241)" fill="#fecb2f" stroke="#fecb2f" stroke-width="1.5"/>
        <path id="Trazado_630041" data-name="Trazado 630041" d="M326.36,370.188l-13.12-8v6.233H296.873l-.154-.481a33.772,33.772,0,0,1-3.367-.283c0,.835-.007,1.666-.007,2.52,0,.051,0,.1.009.15v.03l0,.014,0,.03,0,.016,0,.03,0,.014,0,.03a1.765,1.765,0,0,0,1.738,1.47h18.129V378.2Z" transform="translate(-1356.131 -9929.734)" fill="#fecb2f"/>
        <g id="Grupo_883821" data-name="Grupo 883821" transform="translate(-994.234 -9565.564)">
          <path id="Trazado_630704" data-name="Trazado 630704" d="M13.751,11.93a7.053,7.053,0,0,1-2.809-1.363,2.6,2.6,0,0,1-.879-2,2.751,2.751,0,0,1,1.074-2.223,4.269,4.269,0,0,1,2.793-.879,4.66,4.66,0,0,1,2.09.453,3.436,3.436,0,0,1,1.422,1.25,3.2,3.2,0,0,1,.5,1.742H16.439a2.08,2.08,0,0,0-.656-1.627A2.669,2.669,0,0,0,13.931,6.7a2.732,2.732,0,0,0-1.73.489,1.632,1.632,0,0,0-.621,1.358,1.468,1.468,0,0,0,.59,1.178,5.785,5.785,0,0,0,2.008.88,9.316,9.316,0,0,1,2.219.88A3.367,3.367,0,0,1,17.583,12.6a2.861,2.861,0,0,1,.387,1.508,2.658,2.658,0,0,1-1.078,2.215,4.6,4.6,0,0,1-2.883.832,5.347,5.347,0,0,1-2.187-.449,3.681,3.681,0,0,1-1.566-1.23A3,3,0,0,1,9.7,13.7h1.508a1.959,1.959,0,0,0,.762,1.629,3.207,3.207,0,0,0,2.035.6,2.948,2.948,0,0,0,1.82-.484,1.573,1.573,0,0,0,.633-1.32,1.545,1.545,0,0,0-.586-1.293A6.755,6.755,0,0,0,13.751,11.93Zm9.422,5.227a3.693,3.693,0,0,1-2.8-1.129,4.19,4.19,0,0,1-1.078-3.02v-.266a5.073,5.073,0,0,1,.48-2.246,3.748,3.748,0,0,1,1.344-1.547,3.378,3.378,0,0,1,1.871-.559,3.166,3.166,0,0,1,2.563,1.086,4.7,4.7,0,0,1,.914,3.109v.6H20.744a3,3,0,0,0,.73,2.02,2.3,2.3,0,0,0,1.777.77,2.517,2.517,0,0,0,1.3-.312,3.259,3.259,0,0,0,.93-.828l.883.688A3.55,3.55,0,0,1,23.173,17.156Zm-.18-7.578a1.928,1.928,0,0,0-1.469.637A3.1,3.1,0,0,0,20.79,12h4.234v-.109a2.753,2.753,0,0,0-.594-1.707A1.815,1.815,0,0,0,22.994,9.578Zm9.234.266a4.331,4.331,0,0,0-.711-.055A1.9,1.9,0,0,0,29.587,11v6H28.142V8.547h1.406l.023.977a2.251,2.251,0,0,1,2.016-1.133,1.477,1.477,0,0,1,.641.109Zm4.258,5.2,2.094-6.492h1.477L37.025,17h-1.1L32.861,8.547h1.477ZM43.017,17H41.572V8.547h1.445ZM41.454,6.3a.863.863,0,0,1,.215-.594.807.807,0,0,1,.637-.242.819.819,0,0,1,.641.242.854.854,0,0,1,.219.594.826.826,0,0,1-.219.586.834.834,0,0,1-.641.234.821.821,0,0,1-.637-.234A.834.834,0,0,1,41.454,6.3Zm3.523,6.4A4.952,4.952,0,0,1,45.9,9.574a3.137,3.137,0,0,1,4.766-.168V5h1.445V17H50.783l-.07-.906A2.943,2.943,0,0,1,48.3,17.156a2.887,2.887,0,0,1-2.395-1.2,5.008,5.008,0,0,1-.926-3.141Zm1.445.164a3.749,3.749,0,0,0,.594,2.25,1.92,1.92,0,0,0,1.641.813A2.108,2.108,0,0,0,50.665,14.7V10.813a2.125,2.125,0,0,0-1.992-1.2,1.929,1.929,0,0,0-1.656.82A4.128,4.128,0,0,0,46.423,12.867ZM53.97,12.7a4.993,4.993,0,0,1,.488-2.234A3.643,3.643,0,0,1,55.818,8.93a3.7,3.7,0,0,1,1.988-.539,3.565,3.565,0,0,1,2.793,1.2,4.6,4.6,0,0,1,1.066,3.18v.1a5.036,5.036,0,0,1-.473,2.215,3.589,3.589,0,0,1-1.352,1.527,3.743,3.743,0,0,1-2.02.547,3.556,3.556,0,0,1-2.785-1.2A4.575,4.575,0,0,1,53.97,12.8Zm1.453.172a3.616,3.616,0,0,0,.652,2.258,2.211,2.211,0,0,0,3.5-.012A3.955,3.955,0,0,0,60.22,12.7a3.61,3.61,0,0,0-.66-2.254,2.1,2.1,0,0,0-1.754-.863,2.075,2.075,0,0,0-1.727.852A3.925,3.925,0,0,0,55.423,12.867ZM67.564,9.844a4.331,4.331,0,0,0-.711-.055A1.9,1.9,0,0,0,64.923,11v6H63.478V8.547h1.406l.023.977a2.251,2.251,0,0,1,2.016-1.133,1.477,1.477,0,0,1,.641.109Zm9.281,5.164L80.1,5.625h1.641L77.517,17H76.189L71.978,5.625h1.633Zm7.914-2.461V17h-1.5V5.625h4.2a4.215,4.215,0,0,1,2.926.953A3.231,3.231,0,0,1,91.439,9.1,3.189,3.189,0,0,1,90.4,11.652a4.4,4.4,0,0,1-2.965.895Zm0-1.227h2.7a2.7,2.7,0,0,0,1.844-.567,2.075,2.075,0,0,0,.641-1.64A2.143,2.143,0,0,0,89.3,7.485a2.525,2.525,0,0,0-1.758-.634H84.759ZM96.7,11.93A7.053,7.053,0,0,1,93.9,10.566a2.6,2.6,0,0,1-.879-2,2.751,2.751,0,0,1,1.074-2.223,4.269,4.269,0,0,1,2.793-.879,4.66,4.66,0,0,1,2.09.453,3.436,3.436,0,0,1,1.422,1.25,3.2,3.2,0,0,1,.5,1.742H99.392a2.08,2.08,0,0,0-.656-1.627A2.669,2.669,0,0,0,96.884,6.7a2.732,2.732,0,0,0-1.73.489,1.632,1.632,0,0,0-.621,1.358,1.468,1.468,0,0,0,.59,1.178,5.785,5.785,0,0,0,2.008.88,9.316,9.316,0,0,1,2.219.88,3.367,3.367,0,0,1,1.188,1.121,2.861,2.861,0,0,1,.387,1.508,2.658,2.658,0,0,1-1.078,2.215,4.6,4.6,0,0,1-2.883.832,5.347,5.347,0,0,1-2.187-.449,3.681,3.681,0,0,1-1.566-1.23,3,3,0,0,1-.551-1.773h1.508a1.959,1.959,0,0,0,.762,1.629,3.207,3.207,0,0,0,2.035.6,2.948,2.948,0,0,0,1.82-.484,1.573,1.573,0,0,0,.633-1.32,1.545,1.545,0,0,0-.586-1.293A6.755,6.755,0,0,0,96.7,11.93Zm9.492.766a4.993,4.993,0,0,1,.488-2.234,3.643,3.643,0,0,1,1.359-1.531,3.7,3.7,0,0,1,1.988-.539,3.565,3.565,0,0,1,2.793,1.2,4.6,4.6,0,0,1,1.066,3.18v.1a5.036,5.036,0,0,1-.473,2.215,3.589,3.589,0,0,1-1.352,1.527,3.743,3.743,0,0,1-2.02.547,3.556,3.556,0,0,1-2.785-1.2A4.575,4.575,0,0,1,106.2,12.8Zm1.453.172a3.616,3.616,0,0,0,.652,2.258,2.211,2.211,0,0,0,3.5-.012,3.955,3.955,0,0,0,.648-2.418,3.61,3.61,0,0,0-.66-2.254,2.1,2.1,0,0,0-1.754-.863,2.075,2.075,0,0,0-1.727.852A3.925,3.925,0,0,0,107.65,12.867Zm20.609.523a4.185,4.185,0,0,1-1.332,2.785,4.365,4.365,0,0,1-2.98.98,4.008,4.008,0,0,1-3.23-1.445,5.815,5.815,0,0,1-1.215-3.867V10.75a6.481,6.481,0,0,1,.566-2.789,4.231,4.231,0,0,1,1.605-1.848,4.47,4.47,0,0,1,2.406-.645,4.11,4.11,0,0,1,2.906,1.012,4.235,4.235,0,0,1,1.273,2.8h-1.508a3.268,3.268,0,0,0-.848-1.975,2.565,2.565,0,0,0-1.824-.611,2.684,2.684,0,0,0-2.254,1.063,4.882,4.882,0,0,0-.816,3.026v1.1a5.018,5.018,0,0,0,.773,2.948,2.5,2.5,0,0,0,2.164,1.095,2.886,2.886,0,0,0,1.918-.566,3.143,3.143,0,0,0,.887-1.973ZM131.65,17H130.2V5h1.445Zm1.93-4.3a4.993,4.993,0,0,1,.488-2.234,3.642,3.642,0,0,1,1.359-1.531,3.7,3.7,0,0,1,1.988-.539,3.565,3.565,0,0,1,2.793,1.2,4.6,4.6,0,0,1,1.066,3.18v.1a5.036,5.036,0,0,1-.473,2.215,3.589,3.589,0,0,1-1.352,1.527,3.743,3.743,0,0,1-2.02.547,3.556,3.556,0,0,1-2.785-1.2,4.575,4.575,0,0,1-1.066-3.164Zm1.453.172a3.616,3.616,0,0,0,.652,2.258,2.211,2.211,0,0,0,3.5-.012,3.954,3.954,0,0,0,.648-2.418,3.61,3.61,0,0,0-.66-2.254,2.1,2.1,0,0,0-1.754-.863,2.075,2.075,0,0,0-1.727.852A3.925,3.925,0,0,0,135.033,12.867Zm13.273,3.3a3.07,3.07,0,0,1-2.477.992,2.628,2.628,0,0,1-2.059-.785,3.4,3.4,0,0,1-.715-2.324v-5.5H144.5v5.461q0,1.922,1.563,1.922a2.163,2.163,0,0,0,2.2-1.234V8.547h1.445V17h-1.375Zm3.25-3.461a4.952,4.952,0,0,1,.922-3.129,3.137,3.137,0,0,1,4.766-.168V5h1.445V17h-1.328l-.07-.906a2.943,2.943,0,0,1-2.414,1.063,2.887,2.887,0,0,1-2.395-1.2,5.008,5.008,0,0,1-.926-3.141Zm1.445.164a3.749,3.749,0,0,0,.594,2.25,1.919,1.919,0,0,0,1.641.813,2.108,2.108,0,0,0,2.008-1.234V10.813a2.125,2.125,0,0,0-1.992-1.2,1.929,1.929,0,0,0-1.656.82A4.128,4.128,0,0,0,153,12.867ZM172.751,17h-1.469l.914-5.258h-5.555L165.728,17h-1.469l1.977-11.375H167.7l-.852,4.891H172.4l.852-4.891h1.477Zm7.125-8.609a3.047,3.047,0,0,1,1.82.578,3.285,3.285,0,0,1,1.121,1.551,4.8,4.8,0,0,1,.246,2.16l-.016.172a5.685,5.685,0,0,1-.734,2.23,4.309,4.309,0,0,1-1.516,1.551,3.7,3.7,0,0,1-2.039.523,3.052,3.052,0,0,1-1.816-.578,3.21,3.21,0,0,1-1.113-1.531,4.931,4.931,0,0,1-.25-2.133,5.76,5.76,0,0,1,.711-2.359,4.409,4.409,0,0,1,1.527-1.621A3.652,3.652,0,0,1,179.876,8.391ZM177,12.922a4.8,4.8,0,0,0,0,1.023,2.507,2.507,0,0,0,.551,1.469,1.653,1.653,0,0,0,1.262.57,2.253,2.253,0,0,0,1.3-.348,2.919,2.919,0,0,0,1-1.121,4.721,4.721,0,0,0,.523-1.664,7.493,7.493,0,0,0,.023-1.211,2.6,2.6,0,0,0-.57-1.492,1.69,1.69,0,0,0-1.266-.578,2.3,2.3,0,0,0-1.859.859,4.245,4.245,0,0,0-.945,2.313Zm12.344,1.789q.117-.875-.961-1.234l-1.469-.43q-1.859-.641-1.8-2.125a2.341,2.341,0,0,1,1.02-1.832,3.631,3.631,0,0,1,2.27-.7,3.027,3.027,0,0,1,2.082.746,2.363,2.363,0,0,1,.77,1.9l-1.406-.008a1.319,1.319,0,0,0-.4-1.031,1.576,1.576,0,0,0-1.1-.414,2.059,2.059,0,0,0-1.266.359,1.316,1.316,0,0,0-.57.922q-.1.734.9,1.07l.711.2a4.577,4.577,0,0,1,2.063.977,1.865,1.865,0,0,1,.563,1.492,2.37,2.37,0,0,1-.516,1.375,2.948,2.948,0,0,1-1.25.895,4.18,4.18,0,0,1-1.664.285,3.3,3.3,0,0,1-2.219-.785,2.427,2.427,0,0,1-.844-1.98l1.414.008a1.5,1.5,0,0,0,.453,1.141,1.732,1.732,0,0,0,1.242.43,2.436,2.436,0,0,0,1.336-.324A1.247,1.247,0,0,0,189.345,14.711ZM195.923,6.5l-.359,2.047H197.1l-.2,1.117h-1.531l-.883,5.258a1.833,1.833,0,0,0-.008.375.6.6,0,0,0,.664.609,4.05,4.05,0,0,0,.688-.078l-.109,1.18a3.847,3.847,0,0,1-1.031.141,1.476,1.476,0,0,1-1.266-.621A2.4,2.4,0,0,1,193.1,14.9l.859-5.234H192.47l.2-1.117h1.492l.359-2.047ZM198.869,17h-1.406l1.469-8.453h1.406Zm1.164-11.539a.774.774,0,0,1,.6.215.8.8,0,0,1,.238.605.834.834,0,0,1-.836.852.779.779,0,0,1-.6-.211.764.764,0,0,1-.227-.594.886.886,0,0,1,.234-.609A.826.826,0,0,1,200.033,5.461Zm3.953,3.078-.2,1.07a3.333,3.333,0,0,1,2.594-1.219,2.1,2.1,0,0,1,1.766.828,3.217,3.217,0,0,1,.422,2.242L207.642,17h-1.414l.93-5.557a2.962,2.962,0,0,0,.008-.71,1.168,1.168,0,0,0-1.289-1.116,2.661,2.661,0,0,0-2.234,1.358L202.6,17h-1.414l1.469-8.453Zm6.25,4.219a6.889,6.889,0,0,1,.746-2.4,3.9,3.9,0,0,1,1.359-1.508,3.151,3.151,0,0,1,1.754-.465,2.6,2.6,0,0,1,2.219,1.109l.281-.945h1.3l-1.406,8.273a4.113,4.113,0,0,1-1.312,2.59,3.7,3.7,0,0,1-2.68.926,3.8,3.8,0,0,1-1.645-.406,3.127,3.127,0,0,1-1.238-1.07l.8-.867a2.536,2.536,0,0,0,3.73.6,2.9,2.9,0,0,0,.926-1.687l.156-.75a3.2,3.2,0,0,1-2.414,1,2.486,2.486,0,0,1-1.371-.426,2.589,2.589,0,0,1-.9-1.164,4.759,4.759,0,0,1-.352-1.7A8.731,8.731,0,0,1,210.236,12.758Zm1.367.8a2.974,2.974,0,0,0,.387,1.728,1.461,1.461,0,0,0,1.238.644,2.561,2.561,0,0,0,2.18-1.241l.664-3.878a1.776,1.776,0,0,0-1.7-1.2,2.194,2.194,0,0,0-1.887.936,4.878,4.878,0,0,0-.871,2.614Zm11.469-.854a4.952,4.952,0,0,1,.922-3.129,3.137,3.137,0,0,1,4.766-.168V5H230.2V17h-1.328l-.07-.906a2.943,2.943,0,0,1-2.414,1.063,2.887,2.887,0,0,1-2.395-1.2,5.008,5.008,0,0,1-.926-3.141Zm1.445.164a3.749,3.749,0,0,0,.594,2.25,1.919,1.919,0,0,0,1.641.813,2.108,2.108,0,0,0,2.008-1.234V10.813a2.125,2.125,0,0,0-1.992-1.2,1.929,1.929,0,0,0-1.656.82A4.128,4.128,0,0,0,224.517,12.867Zm11.438,4.289a3.693,3.693,0,0,1-2.8-1.129,4.19,4.19,0,0,1-1.078-3.02v-.266a5.073,5.073,0,0,1,.48-2.246A3.748,3.748,0,0,1,233.9,8.949a3.378,3.378,0,0,1,1.871-.559,3.166,3.166,0,0,1,2.563,1.086,4.7,4.7,0,0,1,.914,3.109v.6h-5.727a3,3,0,0,0,.73,2.02,2.3,2.3,0,0,0,1.777.77,2.517,2.517,0,0,0,1.3-.312,3.258,3.258,0,0,0,.93-.828l.883.688A3.55,3.55,0,0,1,235.954,17.156Zm-.18-7.578a1.928,1.928,0,0,0-1.469.637A3.1,3.1,0,0,0,233.572,12h4.234v-.109a2.753,2.753,0,0,0-.594-1.707A1.815,1.815,0,0,0,235.775,9.578ZM92.912,37.414l.219,1.5.32-1.352,2.25-7.937h1.266l2.2,7.938.313,1.375.242-1.531,1.766-7.781h1.508L100.232,41H98.865l-2.344-8.289-.18-.867-.18.867L93.732,41H92.365l-2.75-11.375h1.5ZM113.4,41h-1.508l-5.727-8.766V41h-1.508V29.625h1.508l5.742,8.8v-8.8H113.4Zm4.164-4.453V41h-1.5V29.625h4.2a4.215,4.215,0,0,1,2.926.953A3.231,3.231,0,0,1,124.24,33.1a3.189,3.189,0,0,1-1.035,2.551,4.4,4.4,0,0,1-2.965.895Zm0-1.227h2.7a2.7,2.7,0,0,0,1.844-.567,2.075,2.075,0,0,0,.641-1.64,2.143,2.143,0,0,0-.641-1.628,2.525,2.525,0,0,0-1.758-.634H117.56Zm7.883,1.375a4.993,4.993,0,0,1,.488-2.234,3.643,3.643,0,0,1,1.359-1.531,3.7,3.7,0,0,1,1.988-.539,3.565,3.565,0,0,1,2.793,1.2,4.6,4.6,0,0,1,1.066,3.18v.1a5.036,5.036,0,0,1-.473,2.215,3.589,3.589,0,0,1-1.352,1.527,3.743,3.743,0,0,1-2.02.547,3.556,3.556,0,0,1-2.785-1.2,4.575,4.575,0,0,1-1.066-3.164Zm1.453.172a3.616,3.616,0,0,0,.652,2.258,2.211,2.211,0,0,0,3.5-.012,3.954,3.954,0,0,0,.648-2.418,3.61,3.61,0,0,0-.66-2.254,2.1,2.1,0,0,0-1.754-.863,2.075,2.075,0,0,0-1.727.852A3.925,3.925,0,0,0,126.9,36.867Zm15.539,2.141,1.625-6.461h1.445L143.044,41h-1.172l-2.055-6.406-2,6.406h-1.172l-2.453-8.453h1.438l1.664,6.328,1.969-6.328h1.164Zm8.047,2.148a3.693,3.693,0,0,1-2.8-1.129,4.19,4.19,0,0,1-1.078-3.02v-.266a5.073,5.073,0,0,1,.48-2.246,3.748,3.748,0,0,1,1.344-1.547,3.378,3.378,0,0,1,1.871-.559,3.166,3.166,0,0,1,2.563,1.086,4.7,4.7,0,0,1,.914,3.109v.6h-5.727a3,3,0,0,0,.73,2.02,2.3,2.3,0,0,0,1.777.77,2.517,2.517,0,0,0,1.3-.312,3.258,3.258,0,0,0,.93-.828l.883.688A3.55,3.55,0,0,1,150.482,41.156Zm-.18-7.578a1.928,1.928,0,0,0-1.469.637A3.1,3.1,0,0,0,148.1,36h4.234v-.109a2.753,2.753,0,0,0-.594-1.707A1.815,1.815,0,0,0,150.3,33.578Zm9.234.266a4.331,4.331,0,0,0-.711-.055A1.9,1.9,0,0,0,156.9,35v6h-1.445V32.547h1.406l.023.977a2.251,2.251,0,0,1,2.016-1.133,1.477,1.477,0,0,1,.641.109Z" transform="translate(0 -8)" fill="#12263f"/>
        </g>
        <path id="Trazado_630042" data-name="Trazado 630042" d="M211.008,294.53H106.243c-.5,0-.9.259-.927.587v.013c-.028.352.4.645.926.645H211.008c2.191,0,3.967,1.18,3.967,2.636v65.517c0,.34.414.616.927.615h.019c.512,0,.927-.275.927-.616V298.411C216.848,296.268,214.233,294.53,211.008,294.53Z" transform="translate(-941.946 -9923.01)" fill="#fecb2f" stroke="#fecb2f" stroke-width="1.5"/>
        <path id="Trazado_630043" data-name="Trazado 630043" d="M111.612,294.53h66.441c.32-.038.379,2.509-.836,2.309s-65.605,0-65.605,0c-2.362,0-4.278,2.19-4.278,4.89V423.267a1.075,1.075,0,0,1-1,1.141h-.021a1.078,1.078,0,0,1-1-1.143V301.729C105.314,297.753,108.134,294.53,111.612,294.53Z" transform="translate(-1119.549 -9923.01)" fill="#ffd45c" stroke="#fecb2f" stroke-width="1.5"/>
        <path id="Trazado_630044" data-name="Trazado 630044" d="M243.548,340.071H106.529c-.648,0-1.178-.168-1.213-.382v-.008c-.037-.229.519-.42,1.211-.42H243.548c2.865,0,5.188-.768,5.188-1.715V294.93c0-.221.542-.4,1.213-.4h.025c.669,0,1.213.179,1.213.4v42.616C251.187,338.941,247.767,340.071,243.548,340.071Z" transform="translate(-976.285 -9835.24)" fill="#ffd45c" stroke="#fecb2f" stroke-width="1.5"/>
        <path id="Trazado_630045" data-name="Trazado 630045" d="M112.953,340.071H249.973c.648,0,1.178-.168,1.213-.382v-.008c.037-.229-.519-.42-1.211-.42l-139.88-1.715c-2.865,0-4.78-27.159-4.78,0C105.314,338.941,108.735,340.071,112.953,340.071Z" transform="translate(-1119.549 -9835.24)" fill="#fecb2f" stroke="#fecb2f" stroke-width="1.5"/>
        <g id="Grupo_883822" data-name="Grupo 883822" transform="translate(-952.13 -9726.236)">
          <g id="Grupo_883819" data-name="Grupo 883819" transform="translate(0 0)">
            <line id="Línea_775" data-name="Línea 775" x2="13.156" transform="translate(30.403 128.11)" fill="none" stroke="#405366" stroke-miterlimit="10" stroke-width="2"/>
            <line id="Línea_776" data-name="Línea 776" x2="14.167" transform="translate(83.025 128.11)" fill="none" stroke="#405366" stroke-miterlimit="10" stroke-width="2"/>
            <g id="Grupo_883817" data-name="Grupo 883817" transform="translate(29.391 101.799)">
              <rect id="Rectángulo_298700" data-name="Rectángulo 298700" width="68.813" height="16.191" transform="translate(0 0)" fill="none" stroke="#405366" stroke-miterlimit="10" stroke-width="2"/>
              <line id="Línea_777" data-name="Línea 777" x2="4.048" transform="translate(14.167 8.096)" fill="none" stroke="#405366" stroke-miterlimit="10" stroke-width="2"/>
              <line id="Línea_778" data-name="Línea 778" x2="3.036" transform="translate(22.263 8.096)" fill="none" stroke="#405366" stroke-miterlimit="10" stroke-width="2"/>
              <line id="Línea_779" data-name="Línea 779" x2="2.024" transform="translate(29.347 8.096)" fill="none" stroke="#405366" stroke-miterlimit="10" stroke-width="2"/>
              <line id="Línea_780" data-name="Línea 780" x2="24.287" transform="translate(38.455 8.096)" fill="none" stroke="#405366" stroke-miterlimit="10" stroke-width="2"/>
              <line id="Línea_781" data-name="Línea 781" x2="6.072" transform="translate(5.06 8.096)" fill="none" stroke="#405366" stroke-miterlimit="10" stroke-width="2"/>
            </g>
            <g id="Grupo_883818" data-name="Grupo 883818" transform="translate(29.391 85.608)">
              <rect id="Rectángulo_298701" data-name="Rectángulo 298701" width="68.813" height="16.191" transform="translate(0 0)" fill="none" stroke="#405366" stroke-miterlimit="10" stroke-width="2"/>
              <line id="Línea_782" data-name="Línea 782" x2="4.048" transform="translate(14.167 10.12)" fill="none" stroke="#405366" stroke-miterlimit="10" stroke-width="2"/>
              <line id="Línea_783" data-name="Línea 783" x2="3.036" transform="translate(22.263 10.12)" fill="none" stroke="#405366" stroke-miterlimit="10" stroke-width="2"/>
              <line id="Línea_784" data-name="Línea 784" x2="2.024" transform="translate(29.347 10.12)" fill="none" stroke="#405366" stroke-miterlimit="10" stroke-width="2"/>
              <line id="Línea_785" data-name="Línea 785" x2="24.287" transform="translate(38.455 10.12)" fill="none" stroke="#405366" stroke-miterlimit="10" stroke-width="2"/>
              <line id="Línea_786" data-name="Línea 786" x2="6.072" transform="translate(5.06 10.12)" fill="none" stroke="#405366" stroke-miterlimit="10" stroke-width="2"/>
            </g>
            <rect id="Rectángulo_298702" data-name="Rectángulo 298702" width="68.813" height="15.179" transform="translate(29.391 70.428)" fill="none" stroke="#405366" stroke-miterlimit="10" stroke-width="2"/>
            <line id="Línea_787" data-name="Línea 787" x2="4.048" transform="translate(43.559 78.523)" fill="none" stroke="#405366" stroke-miterlimit="10" stroke-width="2"/>
            <line id="Línea_788" data-name="Línea 788" x2="6.072" transform="translate(34.451 78.523)" fill="none" stroke="#405366" stroke-miterlimit="10" stroke-width="2"/>
            <line id="Línea_789" data-name="Línea 789" x2="3.036" transform="translate(51.654 78.523)" fill="none" stroke="#405366" stroke-miterlimit="10" stroke-width="2"/>
            <line id="Línea_790" data-name="Línea 790" x2="2.024" transform="translate(58.738 78.523)" fill="none" stroke="#405366" stroke-miterlimit="10" stroke-width="2"/>
            <line id="Línea_791" data-name="Línea 791" x2="24.287" transform="translate(67.846 78.523)" fill="none" stroke="#405366" stroke-miterlimit="10" stroke-width="2"/>
            <path id="Trazado_630033" data-name="Trazado 630033" d="M515.242,317.588h12.28a16.374,16.374,0,0,0,0-32.747A20.464,20.464,0,0,0,493.4,269.6a30.706,30.706,0,0,0-59.985,7.46,20.468,20.468,0,0,0,4.05,40.531h8.187" transform="translate(-417 -248)" fill="none" stroke="#405366" stroke-miterlimit="10" stroke-width="2"/>
            <ellipse id="Elipse_6612" data-name="Elipse 6612" cx="5.566" cy="7.084" rx="5.566" ry="7.084" transform="translate(88.085 25.901)" fill="none" stroke="#405366" stroke-miterlimit="10" stroke-width="2"/>
            <ellipse id="Elipse_6613" data-name="Elipse 6613" cx="7.084" cy="6.072" rx="7.084" ry="6.072" transform="translate(6.116 43.105)" fill="none" stroke="#405366" stroke-miterlimit="10" stroke-width="2"/>
            <ellipse id="Elipse_6614" data-name="Elipse 6614" cx="6.578" cy="6.072" rx="6.578" ry="6.072" transform="translate(34.451 11.734)" fill="none" stroke="#405366" stroke-miterlimit="10" stroke-width="2"/>
            <path id="Trazado_630034" data-name="Trazado 630034" d="M454.327,308.168V287.7l-4.093-10.234V257H440" transform="translate(-392.926 -238.58)" fill="none" stroke="#405366" stroke-miterlimit="10" stroke-width="2"/>
            <path id="Trazado_630035" data-name="Trazado 630035" d="M448.514,298.747V266h-12.28L426,274.187" transform="translate(-407.58 -229.159)" fill="none" stroke="#405366" stroke-miterlimit="10" stroke-width="2"/>
            <path id="Trazado_630036" data-name="Trazado 630036" d="M457,298.747V272.14l7.163-6.14" transform="translate(-375.132 -229.159)" fill="none" stroke="#405366" stroke-miterlimit="10" stroke-width="2"/>
          </g>
        </g>
        <path id="Trazado_630046" data-name="Trazado 630046" d="M326.36,370.188l-13.12-8v6.233H296.873l-.154-.481a33.772,33.772,0,0,1-3.367-.283c0,.835-.007,1.666-.007,2.52,0,.051,0,.1.009.15v.03l0,.014,0,.03,0,.016,0,.03,0,.014,0,.03a1.765,1.765,0,0,0,1.738,1.47h18.129V378.2Z" transform="translate(-1021.131 -9926.734)" fill="#fecb2f"/>
        <g id="Grupo_883824" data-name="Grupo 883824" transform="translate(-659.234 -9554.564)">
          <path id="Trazado_630705" data-name="Trazado 630705" d="M64.97,11.93a7.053,7.053,0,0,1-2.809-1.363,2.6,2.6,0,0,1-.879-2,2.751,2.751,0,0,1,1.074-2.223,4.269,4.269,0,0,1,2.793-.879,4.66,4.66,0,0,1,2.09.453,3.436,3.436,0,0,1,1.422,1.25,3.2,3.2,0,0,1,.5,1.742H67.658A2.08,2.08,0,0,0,67,7.287,2.669,2.669,0,0,0,65.15,6.7a2.732,2.732,0,0,0-1.73.489A1.632,1.632,0,0,0,62.8,8.542a1.468,1.468,0,0,0,.59,1.178,5.785,5.785,0,0,0,2.008.88,9.316,9.316,0,0,1,2.219.88A3.367,3.367,0,0,1,68.8,12.6a2.861,2.861,0,0,1,.387,1.508,2.658,2.658,0,0,1-1.078,2.215,4.6,4.6,0,0,1-2.883.832,5.347,5.347,0,0,1-2.187-.449,3.681,3.681,0,0,1-1.566-1.23,3,3,0,0,1-.551-1.773h1.508a1.959,1.959,0,0,0,.762,1.629,3.207,3.207,0,0,0,2.035.6,2.948,2.948,0,0,0,1.82-.484,1.573,1.573,0,0,0,.633-1.32,1.545,1.545,0,0,0-.586-1.293A6.755,6.755,0,0,0,64.97,11.93Zm9.422,5.227a3.693,3.693,0,0,1-2.8-1.129,4.19,4.19,0,0,1-1.078-3.02v-.266A5.073,5.073,0,0,1,71,10.5a3.748,3.748,0,0,1,1.344-1.547,3.378,3.378,0,0,1,1.871-.559,3.166,3.166,0,0,1,2.563,1.086,4.7,4.7,0,0,1,.914,3.109v.6H71.962a3,3,0,0,0,.73,2.02,2.3,2.3,0,0,0,1.777.77,2.517,2.517,0,0,0,1.3-.312,3.259,3.259,0,0,0,.93-.828l.883.688A3.55,3.55,0,0,1,74.392,17.156Zm-.18-7.578a1.928,1.928,0,0,0-1.469.637A3.1,3.1,0,0,0,72.009,12h4.234v-.109a2.753,2.753,0,0,0-.594-1.707A1.815,1.815,0,0,0,74.212,9.578Zm9.234.266a4.331,4.331,0,0,0-.711-.055A1.9,1.9,0,0,0,80.806,11v6H79.361V8.547h1.406l.023.977a2.251,2.251,0,0,1,2.016-1.133,1.477,1.477,0,0,1,.641.109Zm4.258,5.2L89.8,8.547h1.477L88.244,17h-1.1L84.079,8.547h1.477ZM94.236,17H92.79V8.547h1.445ZM92.673,6.3a.863.863,0,0,1,.215-.594.807.807,0,0,1,.637-.242.819.819,0,0,1,.641.242.854.854,0,0,1,.219.594.826.826,0,0,1-.219.586.834.834,0,0,1-.641.234.821.821,0,0,1-.637-.234A.834.834,0,0,1,92.673,6.3ZM96.2,12.7a4.952,4.952,0,0,1,.922-3.129,3.137,3.137,0,0,1,4.766-.168V5h1.445V17H102l-.07-.906a2.943,2.943,0,0,1-2.414,1.063,2.887,2.887,0,0,1-2.395-1.2,5.008,5.008,0,0,1-.926-3.141Zm1.445.164a3.749,3.749,0,0,0,.594,2.25,1.92,1.92,0,0,0,1.641.813,2.108,2.108,0,0,0,2.008-1.234V10.813a2.125,2.125,0,0,0-1.992-1.2,1.929,1.929,0,0,0-1.656.82A4.128,4.128,0,0,0,97.642,12.867Zm7.547-.172a4.993,4.993,0,0,1,.488-2.234,3.643,3.643,0,0,1,1.359-1.531,3.7,3.7,0,0,1,1.988-.539,3.565,3.565,0,0,1,2.793,1.2,4.6,4.6,0,0,1,1.066,3.18v.1a5.036,5.036,0,0,1-.473,2.215,3.589,3.589,0,0,1-1.352,1.527,3.743,3.743,0,0,1-2.02.547,3.556,3.556,0,0,1-2.785-1.2,4.575,4.575,0,0,1-1.066-3.164Zm1.453.172a3.616,3.616,0,0,0,.652,2.258,2.211,2.211,0,0,0,3.5-.012,3.955,3.955,0,0,0,.648-2.418,3.61,3.61,0,0,0-.66-2.254,2.1,2.1,0,0,0-1.754-.863,2.075,2.075,0,0,0-1.727.852A3.925,3.925,0,0,0,106.642,12.867Zm12.141-3.023a4.331,4.331,0,0,0-.711-.055A1.9,1.9,0,0,0,116.142,11v6H114.7V8.547H116.1l.023.977a2.251,2.251,0,0,1,2.016-1.133,1.477,1.477,0,0,1,.641.109ZM123.72,12.7a4.952,4.952,0,0,1,.922-3.129,3.137,3.137,0,0,1,4.766-.168V5h1.445V17h-1.328l-.07-.906a2.943,2.943,0,0,1-2.414,1.063,2.887,2.887,0,0,1-2.395-1.2,5.008,5.008,0,0,1-.926-3.141Zm1.445.164a3.749,3.749,0,0,0,.594,2.25,1.92,1.92,0,0,0,1.641.813,2.108,2.108,0,0,0,2.008-1.234V10.813a2.125,2.125,0,0,0-1.992-1.2,1.929,1.929,0,0,0-1.656.82A4.128,4.128,0,0,0,125.165,12.867ZM136.6,17.156a3.693,3.693,0,0,1-2.8-1.129,4.19,4.19,0,0,1-1.078-3.02v-.266a5.073,5.073,0,0,1,.48-2.246,3.748,3.748,0,0,1,1.344-1.547,3.378,3.378,0,0,1,1.871-.559,3.166,3.166,0,0,1,2.563,1.086,4.7,4.7,0,0,1,.914,3.109v.6h-5.727a3,3,0,0,0,.73,2.02,2.3,2.3,0,0,0,1.777.77,2.517,2.517,0,0,0,1.3-.312,3.258,3.258,0,0,0,.93-.828l.883.688A3.55,3.55,0,0,1,136.6,17.156Zm-.18-7.578a1.928,1.928,0,0,0-1.469.637A3.1,3.1,0,0,0,134.22,12h4.234v-.109a2.753,2.753,0,0,0-.594-1.707A1.815,1.815,0,0,0,136.423,9.578Zm4.8,3.125a4.952,4.952,0,0,1,.922-3.129,3.137,3.137,0,0,1,4.766-.168V5h1.445V17h-1.328l-.07-.906a2.943,2.943,0,0,1-2.414,1.063,2.887,2.887,0,0,1-2.395-1.2,5.008,5.008,0,0,1-.926-3.141Zm1.445.164a3.749,3.749,0,0,0,.594,2.25,1.919,1.919,0,0,0,1.641.813,2.108,2.108,0,0,0,2.008-1.234V10.813a2.125,2.125,0,0,0-1.992-1.2,1.929,1.929,0,0,0-1.656.82A4.128,4.128,0,0,0,142.665,12.867Zm9.5,4.133H150.72V8.547h1.445ZM150.6,6.3a.863.863,0,0,1,.215-.594.807.807,0,0,1,.637-.242.819.819,0,0,1,.641.242.854.854,0,0,1,.219.594.826.826,0,0,1-.219.586.834.834,0,0,1-.641.234.821.821,0,0,1-.637-.234A.834.834,0,0,1,150.6,6.3Zm7.266,9.672a2.082,2.082,0,0,0,1.352-.469,1.649,1.649,0,0,0,.641-1.172h1.367a2.621,2.621,0,0,1-.5,1.383,3.293,3.293,0,0,1-1.23,1.047,3.55,3.55,0,0,1-1.629.391A3.482,3.482,0,0,1,155.122,16a4.59,4.59,0,0,1-1.02-3.152v-.242a5.089,5.089,0,0,1,.453-2.2,3.451,3.451,0,0,1,1.3-1.492,3.7,3.7,0,0,1,2-.531,3.39,3.39,0,0,1,2.363.852,3.043,3.043,0,0,1,1,2.211h-1.367a1.992,1.992,0,0,0-.621-1.348,1.932,1.932,0,0,0-1.379-.527,2.023,2.023,0,0,0-1.707.793,3.724,3.724,0,0,0-.605,2.293v.273a3.65,3.65,0,0,0,.6,2.25A2.033,2.033,0,0,0,157.869,15.977ZM168.072,17a3.036,3.036,0,0,1-.2-.891,3.225,3.225,0,0,1-2.406,1.047,2.984,2.984,0,0,1-2.051-.707,2.287,2.287,0,0,1-.8-1.793,2.39,2.39,0,0,1,1-2.051,4.733,4.733,0,0,1,2.824-.73h1.406v-.664A1.623,1.623,0,0,0,167.392,10a1.821,1.821,0,0,0-1.336-.449,2.107,2.107,0,0,0-1.3.391,1.151,1.151,0,0,0-.523.945h-1.453a2,2,0,0,1,.449-1.223,3.066,3.066,0,0,1,1.219-.934,4.1,4.1,0,0,1,1.691-.344,3.342,3.342,0,0,1,2.289.73,2.635,2.635,0,0,1,.859,2.012v3.891a4.757,4.757,0,0,0,.3,1.852V17Zm-2.4-1.1a2.54,2.54,0,0,0,1.289-.352,2.127,2.127,0,0,0,.883-.914V12.9h-1.133q-2.656,0-2.656,1.555a1.316,1.316,0,0,0,.453,1.063A1.742,1.742,0,0,0,165.673,15.9Zm5.531-3.2a4.952,4.952,0,0,1,.922-3.129,3.137,3.137,0,0,1,4.766-.168V5h1.445V17h-1.328l-.07-.906a2.943,2.943,0,0,1-2.414,1.063,2.887,2.887,0,0,1-2.395-1.2,5.008,5.008,0,0,1-.926-3.141Zm1.445.164a3.749,3.749,0,0,0,.594,2.25,1.919,1.919,0,0,0,1.641.813,2.108,2.108,0,0,0,2.008-1.234V10.813a2.125,2.125,0,0,0-1.992-1.2,1.929,1.929,0,0,0-1.656.82A4.128,4.128,0,0,0,172.65,12.867ZM180.2,12.7a4.993,4.993,0,0,1,.488-2.234,3.642,3.642,0,0,1,1.359-1.531,3.7,3.7,0,0,1,1.988-.539,3.565,3.565,0,0,1,2.793,1.2,4.6,4.6,0,0,1,1.066,3.18v.1a5.036,5.036,0,0,1-.473,2.215,3.589,3.589,0,0,1-1.352,1.527,3.743,3.743,0,0,1-2.02.547,3.556,3.556,0,0,1-2.785-1.2A4.575,4.575,0,0,1,180.2,12.8Zm1.453.172a3.616,3.616,0,0,0,.652,2.258,2.211,2.211,0,0,0,3.5-.012,3.954,3.954,0,0,0,.648-2.418,3.61,3.61,0,0,0-.66-2.254,2.1,2.1,0,0,0-1.754-.863,2.075,2.075,0,0,0-1.727.852A3.925,3.925,0,0,0,181.65,12.867Z" transform="translate(0 -8)" fill="#12263f"/>
        </g>
        <path id="Trazado_630047" data-name="Trazado 630047" d="M211.008,294.53H106.243c-.5,0-.9.259-.927.587v.013c-.028.352.4.645.926.645H211.008c2.191,0,3.967,1.18,3.967,2.636v65.517c0,.34.414.616.927.615h.019c.512,0,.927-.275.927-.616V298.411C216.848,296.268,214.233,294.53,211.008,294.53Z" transform="translate(-606.946 -9923.01)" fill="#fecb2f" stroke="#fecb2f" stroke-width="1.5"/>
        <path id="Trazado_630048" data-name="Trazado 630048" d="M111.612,294.53h66.441c.32-.038.379,2.509-.836,2.309s-65.605,0-65.605,0c-2.362,0-4.278,2.19-4.278,4.89V423.267a1.075,1.075,0,0,1-1,1.141h-.021a1.078,1.078,0,0,1-1-1.143V301.729C105.314,297.753,108.134,294.53,111.612,294.53Z" transform="translate(-784.549 -9923.01)" fill="#ffd45c" stroke="#fecb2f" stroke-width="1.5"/>
        <path id="Trazado_630049" data-name="Trazado 630049" d="M243.548,340.071H106.529c-.648,0-1.178-.168-1.213-.382v-.008c-.037-.229.519-.42,1.211-.42H243.548c2.865,0,5.188-.768,5.188-1.715V294.93c0-.221.542-.4,1.213-.4h.025c.669,0,1.213.179,1.213.4v42.616C251.187,338.941,247.767,340.071,243.548,340.071Z" transform="translate(-641.285 -9835.24)" fill="#ffd45c" stroke="#fecb2f" stroke-width="1.5"/>
        <path id="Trazado_630050" data-name="Trazado 630050" d="M112.953,340.071H249.973c.648,0,1.178-.168,1.213-.382v-.008c.037-.229-.519-.42-1.211-.42l-139.88-1.715c-2.865,0-4.78-27.159-4.78,0C105.314,338.941,108.735,340.071,112.953,340.071Z" transform="translate(-784.549 -9835.24)" fill="#fecb2f" stroke="#fecb2f" stroke-width="1.5"/>
        <g id="Enmascarar_grupo_107" data-name="Enmascarar grupo 107" transform="translate(-1566.608 -11971.762)" clip-path="url(#clip-path)">
          <g id="Grupo_883833" data-name="Grupo 883833" transform="translate(297.943 2268.571)">
            <line id="Línea_792" data-name="Línea 792" x2="11" transform="translate(3.097 118.437)" fill="none" stroke="#405366" stroke-miterlimit="10" stroke-width="2"/>
            <line id="Línea_793" data-name="Línea 793" x2="11" transform="translate(52.097 118.437)" fill="none" stroke="#405366" stroke-miterlimit="10" stroke-width="2"/>
            <g id="Grupo_883827" data-name="Grupo 883827" transform="translate(0 94.585)">
              <rect id="Rectángulo_298703" data-name="Rectángulo 298703" width="65" height="16" transform="translate(0.097 -0.148)" fill="none" stroke="#405366" stroke-miterlimit="10" stroke-width="2"/>
              <line id="Línea_794" data-name="Línea 794" x2="4" transform="translate(14.097 7.852)" fill="none" stroke="#405366" stroke-miterlimit="10" stroke-width="2"/>
              <line id="Línea_795" data-name="Línea 795" x2="4" transform="translate(21.097 7.852)" fill="none" stroke="#405366" stroke-miterlimit="10" stroke-width="2"/>
              <line id="Línea_796" data-name="Línea 796" x2="3" transform="translate(29.097 7.852)" fill="none" stroke="#405366" stroke-miterlimit="10" stroke-width="2"/>
              <line id="Línea_797" data-name="Línea 797" x2="23" transform="translate(36.097 7.852)" fill="none" stroke="#405366" stroke-miterlimit="10" stroke-width="2"/>
              <line id="Línea_798" data-name="Línea 798" x2="3" transform="translate(6.097 7.852)" fill="none" stroke="#405366" stroke-miterlimit="10" stroke-width="2"/>
            </g>
            <g id="Grupo_883828" data-name="Grupo 883828" transform="translate(0.202 79.82)">
              <path id="Trazado_630052" data-name="Trazado 630052" d="M412.616,435.4v3.8H348V424" transform="translate(-348 -424)" fill="none" stroke="#405366" stroke-miterlimit="10" stroke-width="2"/>
              <line id="Línea_799" data-name="Línea 799" x2="4" transform="translate(13.895 8.617)" fill="none" stroke="#405366" stroke-miterlimit="10" stroke-width="2"/>
              <line id="Línea_800" data-name="Línea 800" x2="4" transform="translate(20.895 8.617)" fill="none" stroke="#405366" stroke-miterlimit="10" stroke-width="2"/>
              <line id="Línea_801" data-name="Línea 801" x2="3" transform="translate(28.895 8.617)" fill="none" stroke="#405366" stroke-miterlimit="10" stroke-width="2"/>
              <line id="Línea_802" data-name="Línea 802" x2="23" transform="translate(35.895 8.617)" fill="none" stroke="#405366" stroke-miterlimit="10" stroke-width="2"/>
              <line id="Línea_803" data-name="Línea 803" x2="3" transform="translate(5.895 8.617)" fill="none" stroke="#405366" stroke-miterlimit="10" stroke-width="2"/>
            </g>
            <g id="Grupo_883829" data-name="Grupo 883829" transform="translate(0.202 64.616)">
              <path id="Trazado_630053" data-name="Trazado 630053" d="M401.213,431.2H348V416h47.512" transform="translate(-348 -416)" fill="none" stroke="#405366" stroke-miterlimit="10" stroke-width="2"/>
              <line id="Línea_804" data-name="Línea 804" x2="4" transform="translate(13.895 7.82)" fill="none" stroke="#405366" stroke-miterlimit="10" stroke-width="2"/>
              <line id="Línea_805" data-name="Línea 805" x2="3" transform="translate(5.895 7.82)" fill="none" stroke="#405366" stroke-miterlimit="10" stroke-width="2"/>
              <line id="Línea_806" data-name="Línea 806" x2="4" transform="translate(20.895 7.82)" fill="none" stroke="#405366" stroke-miterlimit="10" stroke-width="2"/>
              <line id="Línea_807" data-name="Línea 807" x2="3" transform="translate(28.895 7.82)" fill="none" stroke="#405366" stroke-miterlimit="10" stroke-width="2"/>
              <line id="Línea_808" data-name="Línea 808" x2="14" transform="translate(35.895 7.82)" fill="none" stroke="#405366" stroke-miterlimit="10" stroke-width="2"/>
            </g>
            <g id="Grupo_883830" data-name="Grupo 883830" transform="translate(0.202 49.412)">
              <path id="Trazado_630054" data-name="Trazado 630054" d="M395.512,423.2H348V408h47.512" transform="translate(-348 -408)" fill="none" stroke="#405366" stroke-miterlimit="10" stroke-width="2"/>
              <line id="Línea_809" data-name="Línea 809" x2="4" transform="translate(13.895 7.024)" fill="none" stroke="#405366" stroke-miterlimit="10" stroke-width="2"/>
              <line id="Línea_810" data-name="Línea 810" x2="3" transform="translate(5.895 7.024)" fill="none" stroke="#405366" stroke-miterlimit="10" stroke-width="2"/>
              <line id="Línea_811" data-name="Línea 811" x2="4" transform="translate(20.895 7.024)" fill="none" stroke="#405366" stroke-miterlimit="10" stroke-width="2"/>
              <line id="Línea_812" data-name="Línea 812" x2="3" transform="translate(28.895 7.024)" fill="none" stroke="#405366" stroke-miterlimit="10" stroke-width="2"/>
              <line id="Línea_813" data-name="Línea 813" x2="9" transform="translate(35.895 7.024)" fill="none" stroke="#405366" stroke-miterlimit="10" stroke-width="2"/>
            </g>
            <g id="Grupo_883831" data-name="Grupo 883831" transform="translate(0.202 19.005)">
              <path id="Trazado_630055" data-name="Trazado 630055" d="M395.512,407.2H348V392h64.616" transform="translate(-348 -392)" fill="none" stroke="#405366" stroke-miterlimit="10" stroke-width="2"/>
              <line id="Línea_814" data-name="Línea 814" x2="4" transform="translate(13.895 7.432)" fill="none" stroke="#405366" stroke-miterlimit="10" stroke-width="2"/>
              <line id="Línea_815" data-name="Línea 815" x2="3" transform="translate(5.895 7.432)" fill="none" stroke="#405366" stroke-miterlimit="10" stroke-width="2"/>
              <line id="Línea_816" data-name="Línea 816" x2="4" transform="translate(20.895 7.432)" fill="none" stroke="#405366" stroke-miterlimit="10" stroke-width="2"/>
              <line id="Línea_817" data-name="Línea 817" x2="3" transform="translate(28.895 7.432)" fill="none" stroke="#405366" stroke-miterlimit="10" stroke-width="2"/>
              <line id="Línea_818" data-name="Línea 818" x2="19" transform="translate(35.895 7.432)" fill="none" stroke="#405366" stroke-miterlimit="10" stroke-width="2"/>
            </g>
            <g id="Grupo_883832" data-name="Grupo 883832" transform="translate(0 34.339)">
              <line id="Línea_819" data-name="Línea 819" y1="16" transform="translate(0.097 0.098)" fill="none" stroke="#405366" stroke-miterlimit="10" stroke-width="2"/>
              <line id="Línea_820" data-name="Línea 820" x2="4" transform="translate(14.097 6.098)" fill="none" stroke="#405366" stroke-miterlimit="10" stroke-width="2"/>
              <line id="Línea_821" data-name="Línea 821" x2="3" transform="translate(6.097 6.098)" fill="none" stroke="#405366" stroke-miterlimit="10" stroke-width="2"/>
              <line id="Línea_822" data-name="Línea 822" x2="4" transform="translate(21.097 6.098)" fill="none" stroke="#405366" stroke-miterlimit="10" stroke-width="2"/>
              <line id="Línea_823" data-name="Línea 823" x2="3" transform="translate(29.097 6.098)" fill="none" stroke="#405366" stroke-miterlimit="10" stroke-width="2"/>
              <line id="Línea_824" data-name="Línea 824" x2="14" transform="translate(36.097 6.098)" fill="none" stroke="#405366" stroke-miterlimit="10" stroke-width="2"/>
            </g>
            <line id="Línea_825" data-name="Línea 825" x2="6" transform="translate(0.097 6.437)" fill="none" stroke="#405366" stroke-miterlimit="10" stroke-width="2"/>
            <line id="Línea_826" data-name="Línea 826" x2="6" transform="translate(59.097 6.437)" fill="none" stroke="#405366" stroke-miterlimit="10" stroke-width="2"/>
            <line id="Línea_827" data-name="Línea 827" x2="46" transform="translate(9.097 6.437)" fill="none" stroke="#405366" stroke-miterlimit="10" stroke-width="2"/>
            <path id="Trazado_630056" data-name="Trazado 630056" d="M412.616,408.607V382H348v34.208h55.114" transform="translate(-347.798 -382)" fill="none" stroke="#405366" stroke-miterlimit="10" stroke-width="2"/>
            <ellipse id="Elipse_6615" data-name="Elipse 6615" cx="36.5" cy="36" rx="36.5" ry="36" transform="translate(45.097 22.437)" fill="none" stroke="#405366" stroke-miterlimit="10" stroke-width="2"/>
            <ellipse id="Elipse_6616" data-name="Elipse 6616" cx="5" cy="5.5" rx="5" ry="5.5" transform="translate(55.097 54.437)" fill="none" stroke="#405366" stroke-miterlimit="10" stroke-width="2"/>
            <ellipse id="Elipse_6617" data-name="Elipse 6617" cx="4.5" cy="5.5" rx="4.5" ry="5.5" transform="translate(88.097 39.437)" fill="none" stroke="#405366" stroke-miterlimit="10" stroke-width="2"/>
            <ellipse id="Elipse_6618" data-name="Elipse 6618" cx="4.5" cy="5.5" rx="4.5" ry="5.5" transform="translate(99.097 54.437)" fill="none" stroke="#405366" stroke-miterlimit="10" stroke-width="2"/>
            <line id="Línea_828" data-name="Línea 828" x2="34" transform="translate(65.097 58.437)" fill="none" stroke="#405366" stroke-miterlimit="10" stroke-width="2"/>
            <path id="Trazado_630057" data-name="Trazado 630057" d="M386,420.2l7.6-15.2h7.6" transform="translate(-313.58 -361.289)" fill="none" stroke="#405366" stroke-miterlimit="10" stroke-width="2"/>
            <ellipse id="Elipse_6619" data-name="Elipse 6619" cx="4.5" cy="4" rx="4.5" ry="4" transform="translate(88.097 70.437)" fill="none" stroke="#405366" stroke-miterlimit="10" stroke-width="2"/>
            <path id="Trazado_630058" data-name="Trazado 630058" d="M386,413l7.6,15.2h7.6" transform="translate(-313.58 -354.085)" fill="none" stroke="#405366" stroke-miterlimit="10" stroke-width="2"/>
          </g>
        </g>
        <g id="Enmascarar_grupo_108" data-name="Enmascarar grupo 108" transform="translate(-891.347 -11977.264)" clip-path="url(#clip-path-2)">
          <g id="Grupo_883835" data-name="Grupo 883835" transform="translate(289.875 2268.741)">
            <g id="Grupo_883834" data-name="Grupo 883834" transform="translate(0 0)">
              <line id="Línea_829" data-name="Línea 829" x2="10" transform="translate(1.904 104.768)" fill="none" stroke="#405366" stroke-miterlimit="10" stroke-width="2"/>
              <line id="Línea_830" data-name="Línea 830" x2="2" transform="translate(11.904 91.768)" fill="none" stroke="#405366" stroke-miterlimit="10" stroke-width="2"/>
              <line id="Línea_831" data-name="Línea 831" x2="4" transform="translate(17.904 91.768)" fill="none" stroke="#405366" stroke-miterlimit="10" stroke-width="2"/>
              <line id="Línea_832" data-name="Línea 832" x2="4" transform="translate(3.904 91.768)" fill="none" stroke="#405366" stroke-miterlimit="10" stroke-width="2"/>
              <path id="Trazado_630059" data-name="Trazado 630059" d="M629.566,258H577v13.566h45.784" transform="translate(-577 -241.043)" fill="none" stroke="#405366" stroke-miterlimit="10" stroke-width="2"/>
              <line id="Línea_833" data-name="Línea 833" x2="2" transform="translate(11.904 24.768)" fill="none" stroke="#405366" stroke-miterlimit="10" stroke-width="2"/>
              <line id="Línea_834" data-name="Línea 834" x2="4" transform="translate(17.904 24.768)" fill="none" stroke="#405366" stroke-miterlimit="10" stroke-width="2"/>
              <line id="Línea_835" data-name="Línea 835" x2="4" transform="translate(25.904 24.768)" fill="none" stroke="#405366" stroke-miterlimit="10" stroke-width="2"/>
              <line id="Línea_836" data-name="Línea 836" x2="12" transform="translate(33.904 24.768)" fill="none" stroke="#405366" stroke-miterlimit="10" stroke-width="2"/>
              <line id="Línea_837" data-name="Línea 837" x2="4" transform="translate(25.904 36.768)" fill="none" stroke="#405366" stroke-miterlimit="10" stroke-width="2"/>
              <line id="Línea_838" data-name="Línea 838" x2="18" transform="translate(33.904 36.768)" fill="none" stroke="#405366" stroke-miterlimit="10" stroke-width="2"/>
              <line id="Línea_839" data-name="Línea 839" x2="4" transform="translate(25.904 51.768)" fill="none" stroke="#405366" stroke-miterlimit="10" stroke-width="2"/>
              <line id="Línea_840" data-name="Línea 840" x2="18" transform="translate(33.904 51.768)" fill="none" stroke="#405366" stroke-miterlimit="10" stroke-width="2"/>
              <line id="Línea_841" data-name="Línea 841" x2="4" transform="translate(25.904 63.768)" fill="none" stroke="#405366" stroke-miterlimit="10" stroke-width="2"/>
              <line id="Línea_842" data-name="Línea 842" x2="23" transform="translate(33.904 63.768)" fill="none" stroke="#405366" stroke-miterlimit="10" stroke-width="2"/>
              <line id="Línea_843" data-name="Línea 843" x2="4" transform="translate(3.904 24.768)" fill="none" stroke="#405366" stroke-miterlimit="10" stroke-width="2"/>
              <path id="Trazado_630060" data-name="Trazado 630060" d="M577,303.566V290h33.914" transform="translate(-577 -218.781)" fill="none" stroke="#405366" stroke-miterlimit="10" stroke-width="2"/>
              <line id="Línea_844" data-name="Línea 844" x2="2" transform="translate(11.904 78.768)" fill="none" stroke="#405366" stroke-miterlimit="10" stroke-width="2"/>
              <line id="Línea_845" data-name="Línea 845" x2="4" transform="translate(17.904 78.768)" fill="none" stroke="#405366" stroke-miterlimit="10" stroke-width="2"/>
              <line id="Línea_846" data-name="Línea 846" x2="4" transform="translate(3.904 78.768)" fill="none" stroke="#405366" stroke-miterlimit="10" stroke-width="2"/>
              <path id="Trazado_630061" data-name="Trazado 630061" d="M577,295.566V282h55.958" transform="translate(-577 -224.346)" fill="none" stroke="#405366" stroke-miterlimit="10" stroke-width="2"/>
              <line id="Línea_847" data-name="Línea 847" x2="2" transform="translate(11.904 63.768)" fill="none" stroke="#405366" stroke-miterlimit="10" stroke-width="2"/>
              <line id="Línea_848" data-name="Línea 848" x2="4" transform="translate(3.904 63.768)" fill="none" stroke="#405366" stroke-miterlimit="10" stroke-width="2"/>
              <line id="Línea_849" data-name="Línea 849" x2="4" transform="translate(17.904 63.768)" fill="none" stroke="#405366" stroke-miterlimit="10" stroke-width="2"/>
              <path id="Trazado_630062" data-name="Trazado 630062" d="M577,287.566V274h47.479" transform="translate(-577 -229.912)" fill="none" stroke="#405366" stroke-miterlimit="10" stroke-width="2"/>
              <line id="Línea_850" data-name="Línea 850" x2="2" transform="translate(11.904 51.768)" fill="none" stroke="#405366" stroke-miterlimit="10" stroke-width="2"/>
              <line id="Línea_851" data-name="Línea 851" x2="4" transform="translate(3.904 51.768)" fill="none" stroke="#405366" stroke-miterlimit="10" stroke-width="2"/>
              <line id="Línea_852" data-name="Línea 852" x2="4" transform="translate(17.904 51.768)" fill="none" stroke="#405366" stroke-miterlimit="10" stroke-width="2"/>
              <line id="Línea_853" data-name="Línea 853" y1="12" transform="translate(-0.096 31.768)" fill="none" stroke="#405366" stroke-miterlimit="10" stroke-width="2"/>
              <line id="Línea_854" data-name="Línea 854" x2="2" transform="translate(11.904 36.768)" fill="none" stroke="#405366" stroke-miterlimit="10" stroke-width="2"/>
              <line id="Línea_855" data-name="Línea 855" x2="4" transform="translate(3.904 36.768)" fill="none" stroke="#405366" stroke-miterlimit="10" stroke-width="2"/>
              <line id="Línea_856" data-name="Línea 856" x2="4" transform="translate(17.904 36.768)" fill="none" stroke="#405366" stroke-miterlimit="10" stroke-width="2"/>
              <line id="Línea_857" data-name="Línea 857" x2="4" transform="translate(-0.096 5.768)" fill="none" stroke="#405366" stroke-miterlimit="10" stroke-width="2"/>
              <line id="Línea_858" data-name="Línea 858" x2="4" transform="translate(53.904 5.768)" fill="none" stroke="#405366" stroke-miterlimit="10" stroke-width="2"/>
              <line id="Línea_859" data-name="Línea 859" x2="42" transform="translate(7.904 5.768)" fill="none" stroke="#405366" stroke-miterlimit="10" stroke-width="2"/>
              <path id="Trazado_630063" data-name="Trazado 630063" d="M634.654,263.261V248H577v30.522h45.784" transform="translate(-577 -248)" fill="none" stroke="#405366" stroke-miterlimit="10" stroke-width="2"/>
              <path id="Trazado_630064" data-name="Trazado 630064" d="M604.131,298H577v13.566h27.131" transform="translate(-577 -213.215)" fill="none" stroke="#405366" stroke-miterlimit="10" stroke-width="2"/>
            </g>
            <path id="Trazado_630065" data-name="Trazado 630065" d="M640.305,273.906h0a6.8,6.8,0,0,1-6.783-6.783h0c0,10.174-23.74,3.391-30.522,6.783,0-23.74,30.522-16.957,32.218-11.87h0a5.087,5.087,0,0,1,5.087,5.087Z" transform="translate(-558.912 -241.688)" fill="none" stroke="#405366" stroke-miterlimit="10" stroke-width="2"/>
            <path id="Trazado_630066" data-name="Trazado 630066" d="M650.827,331.871V303.032a6.781,6.781,0,0,0-4.868-6.506L622,289.478V281" transform="translate(-545.694 -225.042)" fill="none" stroke="#405366" stroke-miterlimit="10" stroke-width="2"/>
            <path id="Trazado_630067" data-name="Trazado 630067" d="M621.827,281v8.478l-23.958,7.047A6.782,6.782,0,0,0,593,303.032v28.839" transform="translate(-565.869 -225.042)" fill="none" stroke="#405366" stroke-miterlimit="10" stroke-width="2"/>
            <line id="Línea_860" data-name="Línea 860" y2="21" transform="translate(40.904 86.768)" fill="none" stroke="#405366" stroke-miterlimit="10" stroke-width="2"/>
            <line id="Línea_861" data-name="Línea 861" y2="21" transform="translate(91.904 86.768)" fill="none" stroke="#405366" stroke-miterlimit="10" stroke-width="2"/>
            <path id="Trazado_630068" data-name="Trazado 630068" d="M638.914,267.7v5.087h0a3.39,3.39,0,0,1,3.391,3.391h0a9.5,9.5,0,0,1-2.147,6.016l-1.245,1.521v4.333l-10.174,6.783H618.565l-10.174-6.783v-4.333l-1.245-1.521A9.5,9.5,0,0,1,605,276.174h0a3.39,3.39,0,0,1,3.391-3.391h0V266" transform="translate(-557.521 -235.478)" fill="none" stroke="#405366" stroke-miterlimit="10" stroke-width="2"/>
            <path id="Trazado_630069" data-name="Trazado 630069" d="M671,328.392V299.554a6.781,6.781,0,0,0-4.868-6.506L642.175,286s-.019.051-.049.124a10.171,10.171,0,0,1-20.25,0c-.031-.073-.049-.124-.049-.124l-23.958,7.047A6.782,6.782,0,0,0,593,299.554v28.839" transform="translate(-565.869 -221.564)" fill="none" stroke="#405366" stroke-miterlimit="10" stroke-width="2"/>
            <line id="Línea_862" data-name="Línea 862" y2="41" transform="translate(56.904 66.768)" fill="none" stroke="#405366" stroke-miterlimit="10" stroke-width="2"/>
            <line id="Línea_863" data-name="Línea 863" y2="41" transform="translate(76.904 66.768)" fill="none" stroke="#405366" stroke-miterlimit="10" stroke-width="2"/>
            <rect id="Rectángulo_298705" data-name="Rectángulo 298705" width="8" height="7" transform="translate(54.904 36.768)" fill="none" stroke="#405366" stroke-miterlimit="10" stroke-width="2"/>
            <rect id="Rectángulo_298706" data-name="Rectángulo 298706" width="9" height="7" transform="translate(69.904 36.768)" fill="none" stroke="#405366" stroke-miterlimit="10" stroke-width="2"/>
            <line id="Línea_864" data-name="Línea 864" x2="7" transform="translate(62.904 40.768)" fill="none" stroke="#405366" stroke-miterlimit="10" stroke-width="2"/>
          </g>
        </g>
      </g>
    </g>
  </g>
</svg>
